<svg width="400" height="401" viewBox="0 0 400 401" fill="none" xmlns="http://www.w3.org/2000/svg">
<path d="M118.523 105.32C119.628 105.32 120.523 104.425 120.523 103.32C120.523 102.216 119.628 101.32 118.523 101.32C117.419 101.32 116.523 102.216 116.523 103.32C116.523 104.425 117.419 105.32 118.523 105.32Z" fill="#0A8EFA"/>
<path d="M119.32 99.3691C120.425 99.3691 121.32 98.4737 121.32 97.3691C121.32 96.2646 120.425 95.3691 119.32 95.3691C118.216 95.3691 117.32 96.2646 117.32 97.3691C117.32 98.4737 118.216 99.3691 119.32 99.3691Z" fill="#0A8EFA"/>
<path d="M120.117 93.4297C121.222 93.4297 122.117 92.5343 122.117 91.4297C122.117 90.3251 121.222 89.4297 120.117 89.4297C119.013 89.4297 118.117 90.3251 118.117 91.4297C118.117 92.5343 119.013 93.4297 120.117 93.4297Z" fill="#0A8EFA"/>
<path d="M121.172 87.5508C122.276 87.5508 123.172 86.6554 123.172 85.5508C123.172 84.4462 122.276 83.5508 121.172 83.5508C120.067 83.5508 119.172 84.4462 119.172 85.5508C119.172 86.6554 120.067 87.5508 121.172 87.5508Z" fill="#0A8EFA"/>
<path d="M123.508 82.0195C124.612 82.0195 125.508 81.1241 125.508 80.0195C125.508 78.915 124.612 78.0195 123.508 78.0195C122.403 78.0195 121.508 78.915 121.508 80.0195C121.508 81.1241 122.403 82.0195 123.508 82.0195Z" fill="#0A8EFA"/>
<path d="M125.852 76.5C126.956 76.5 127.852 75.6046 127.852 74.5C127.852 73.3954 126.956 72.5 125.852 72.5C124.747 72.5 123.852 73.3954 123.852 74.5C123.852 75.6046 124.747 76.5 125.852 76.5Z" fill="#0A8EFA"/>
<path d="M128.188 70.9707C129.292 70.9707 130.188 70.0753 130.188 68.9707C130.188 67.8661 129.292 66.9707 128.188 66.9707C127.083 66.9707 126.188 67.8661 126.188 68.9707C126.188 70.0753 127.083 70.9707 128.188 70.9707Z" fill="#0A8EFA"/>
<path d="M131.328 65.9199C132.433 65.9199 133.328 65.0245 133.328 63.9199C133.328 62.8154 132.433 61.9199 131.328 61.9199C130.224 61.9199 129.328 62.8154 129.328 63.9199C129.328 65.0245 130.224 65.9199 131.328 65.9199Z" fill="#0A8EFA"/>
<path d="M135 61.1797C136.105 61.1797 137 60.2843 137 59.1797C137 58.0751 136.105 57.1797 135 57.1797C133.895 57.1797 133 58.0751 133 59.1797C133 60.2843 133.895 61.1797 135 61.1797Z" fill="#0A8EFA"/>
<path d="M138.68 56.4395C139.784 56.4395 140.68 55.544 140.68 54.4395C140.68 53.3349 139.784 52.4395 138.68 52.4395C137.575 52.4395 136.68 53.3349 136.68 54.4395C136.68 55.544 137.575 56.4395 138.68 56.4395Z" fill="#0A8EFA"/>
<path d="M142.453 51.7891C143.558 51.7891 144.453 50.8936 144.453 49.7891C144.453 48.6845 143.558 47.7891 142.453 47.7891C141.349 47.7891 140.453 48.6845 140.453 49.7891C140.453 50.8936 141.349 51.7891 142.453 51.7891Z" fill="#0A8EFA"/>
<path d="M147.211 48.1191C148.316 48.1191 149.211 47.2237 149.211 46.1191C149.211 45.0146 148.316 44.1191 147.211 44.1191C146.106 44.1191 145.211 45.0146 145.211 46.1191C145.211 47.2237 146.106 48.1191 147.211 48.1191Z" fill="#0A8EFA"/>
<path d="M151.961 44.4609C153.066 44.4609 153.961 43.5655 153.961 42.4609C153.961 41.3564 153.066 40.4609 151.961 40.4609C150.856 40.4609 149.961 41.3564 149.961 42.4609C149.961 43.5655 150.856 44.4609 151.961 44.4609Z" fill="#0A8EFA"/>
<path d="M156.711 40.7891C157.816 40.7891 158.711 39.8936 158.711 38.7891C158.711 37.6845 157.816 36.7891 156.711 36.7891C155.606 36.7891 154.711 37.6845 154.711 38.7891C154.711 39.8936 155.606 40.7891 156.711 40.7891Z" fill="#0A8EFA"/>
<path d="M161.953 37.9707C163.058 37.9707 163.953 37.0753 163.953 35.9707C163.953 34.8661 163.058 33.9707 161.953 33.9707C160.849 33.9707 159.953 34.8661 159.953 35.9707C159.953 37.0753 160.849 37.9707 161.953 37.9707Z" fill="#0A8EFA"/>
<path d="M167.469 35.6191C168.573 35.6191 169.469 34.7237 169.469 33.6191C169.469 32.5146 168.573 31.6191 167.469 31.6191C166.364 31.6191 165.469 32.5146 165.469 33.6191C165.469 34.7237 166.364 35.6191 167.469 35.6191Z" fill="#0A8EFA"/>
<path d="M172.992 33.2695C174.097 33.2695 174.992 32.3741 174.992 31.2695C174.992 30.165 174.097 29.2695 172.992 29.2695C171.888 29.2695 170.992 30.165 170.992 31.2695C170.992 32.3741 171.888 33.2695 172.992 33.2695Z" fill="#0A8EFA"/>
<path d="M178.57 31.1309C179.675 31.1309 180.57 30.2354 180.57 29.1309C180.57 28.0263 179.675 27.1309 178.57 27.1309C177.466 27.1309 176.57 28.0263 176.57 29.1309C176.57 30.2354 177.466 31.1309 178.57 31.1309Z" fill="#0A8EFA"/>
<path d="M184.508 30.3203C185.612 30.3203 186.508 29.4249 186.508 28.3203C186.508 27.2157 185.612 26.3203 184.508 26.3203C183.403 26.3203 182.508 27.2157 182.508 28.3203C182.508 29.4249 183.403 30.3203 184.508 30.3203Z" fill="#0A8EFA"/>
<path d="M190.461 29.5098C191.566 29.5098 192.461 28.6143 192.461 27.5098C192.461 26.4052 191.566 25.5098 190.461 25.5098C189.356 25.5098 188.461 26.4052 188.461 27.5098C188.461 28.6143 189.356 29.5098 190.461 29.5098Z" fill="#0A8EFA"/>
<path d="M196.398 28.6895C197.503 28.6895 198.398 27.794 198.398 26.6895C198.398 25.5849 197.503 24.6895 196.398 24.6895C195.294 24.6895 194.398 25.5849 194.398 26.6895C194.398 27.794 195.294 28.6895 196.398 28.6895Z" fill="#0A8EFA"/>
<path d="M202.352 28.5C203.456 28.5 204.352 27.6046 204.352 26.5C204.352 25.3954 203.456 24.5 202.352 24.5C201.247 24.5 200.352 25.3954 200.352 26.5C200.352 27.6046 201.247 28.5 202.352 28.5Z" fill="#0A8EFA"/>
<path d="M208.312 29.2207C209.417 29.2207 210.312 28.3253 210.312 27.2207C210.312 26.1161 209.417 25.2207 208.312 25.2207C207.208 25.2207 206.312 26.1161 206.312 27.2207C206.312 28.3253 207.208 29.2207 208.312 29.2207Z" fill="#0A8EFA"/>
<path d="M214.273 29.9395C215.378 29.9395 216.273 29.044 216.273 27.9395C216.273 26.8349 215.378 25.9395 214.273 25.9395C213.169 25.9395 212.273 26.8349 212.273 27.9395C212.273 29.044 213.169 29.9395 214.273 29.9395Z" fill="#0A8EFA"/>
<path d="M220.18 30.8105C221.284 30.8105 222.18 29.9151 222.18 28.8105C222.18 27.706 221.284 26.8105 220.18 26.8105C219.075 26.8105 218.18 27.706 218.18 28.8105C218.18 29.9151 219.075 30.8105 220.18 30.8105Z" fill="#0A8EFA"/>
<path d="M225.688 33.1992C226.792 33.1992 227.688 32.3038 227.688 31.1992C227.688 30.0946 226.792 29.1992 225.688 29.1992C224.583 29.1992 223.688 30.0946 223.688 31.1992C223.688 32.3038 224.583 33.1992 225.688 33.1992Z" fill="#0A8EFA"/>
<path d="M231.188 35.5801C232.292 35.5801 233.188 34.6846 233.188 33.5801C233.188 32.4755 232.292 31.5801 231.188 31.5801C230.083 31.5801 229.188 32.4755 229.188 33.5801C229.188 34.6846 230.083 35.5801 231.188 35.5801Z" fill="#0A8EFA"/>
<path d="M236.703 37.9707C237.808 37.9707 238.703 37.0753 238.703 35.9707C238.703 34.8661 237.808 33.9707 236.703 33.9707C235.599 33.9707 234.703 34.8661 234.703 35.9707C234.703 37.0753 235.599 37.9707 236.703 37.9707Z" fill="#0A8EFA"/>
<path d="M242.203 40.3496C243.308 40.3496 244.203 39.4542 244.203 38.3496C244.203 37.245 243.308 36.3496 242.203 36.3496C241.099 36.3496 240.203 37.245 240.203 38.3496C240.203 39.4542 241.099 40.3496 242.203 40.3496Z" fill="#0A8EFA"/>
<path d="M247.102 43.6895C248.206 43.6895 249.102 42.794 249.102 41.6895C249.102 40.5849 248.206 39.6895 247.102 39.6895C245.997 39.6895 245.102 40.5849 245.102 41.6895C245.102 42.794 245.997 43.6895 247.102 43.6895Z" fill="#0A8EFA"/>
<path d="M251.539 47.7207C252.644 47.7207 253.539 46.8253 253.539 45.7207C253.539 44.6161 252.644 43.7207 251.539 43.7207C250.434 43.7207 249.539 44.6161 249.539 45.7207C249.539 46.8253 250.434 47.7207 251.539 47.7207Z" fill="#0A8EFA"/>
<path d="M255.977 51.7598C257.081 51.7598 257.977 50.8643 257.977 49.7598C257.977 48.6552 257.081 47.7598 255.977 47.7598C254.872 47.7598 253.977 48.6552 253.977 49.7598C253.977 50.8643 254.872 51.7598 255.977 51.7598Z" fill="#0A8EFA"/>
<path d="M260.422 55.7891C261.526 55.7891 262.422 54.8936 262.422 53.7891C262.422 52.6845 261.526 51.7891 260.422 51.7891C259.317 51.7891 258.422 52.6845 258.422 53.7891C258.422 54.8936 259.317 55.7891 260.422 55.7891Z" fill="#0A8EFA"/>
<path d="M264.656 59.9805C265.761 59.9805 266.656 59.085 266.656 57.9805C266.656 56.8759 265.761 55.9805 264.656 55.9805C263.552 55.9805 262.656 56.8759 262.656 57.9805C262.656 59.085 263.552 59.9805 264.656 59.9805Z" fill="#0A8EFA"/>
<path d="M267.57 65.2305C268.675 65.2305 269.57 64.335 269.57 63.2305C269.57 62.1259 268.675 61.2305 267.57 61.2305C266.466 61.2305 265.57 62.1259 265.57 63.2305C265.57 64.335 266.466 65.2305 267.57 65.2305Z" fill="#0A8EFA"/>
<path d="M270.477 70.4805C271.581 70.4805 272.477 69.585 272.477 68.4805C272.477 67.3759 271.581 66.4805 270.477 66.4805C269.372 66.4805 268.477 67.3759 268.477 68.4805C268.477 69.585 269.372 70.4805 270.477 70.4805Z" fill="#0A8EFA"/>
<path d="M273.391 75.7305C274.495 75.7305 275.391 74.835 275.391 73.7305C275.391 72.6259 274.495 71.7305 273.391 71.7305C272.286 71.7305 271.391 72.6259 271.391 73.7305C271.391 74.835 272.286 75.7305 273.391 75.7305Z" fill="#0A8EFA"/>
<path d="M276.297 80.9707C277.401 80.9707 278.297 80.0753 278.297 78.9707C278.297 77.8661 277.401 76.9707 276.297 76.9707C275.192 76.9707 274.297 77.8661 274.297 78.9707C274.297 80.0753 275.192 80.9707 276.297 80.9707Z" fill="#0A8EFA"/>
<path d="M277.992 86.6504C279.097 86.6504 279.992 85.755 279.992 84.6504C279.992 83.5458 279.097 82.6504 277.992 82.6504C276.888 82.6504 275.992 83.5458 275.992 84.6504C275.992 85.755 276.888 86.6504 277.992 86.6504Z" fill="#0A8EFA"/>
<path d="M279 92.5605C280.105 92.5605 281 91.6651 281 90.5605C281 89.456 280.105 88.5605 279 88.5605C277.895 88.5605 277 89.456 277 90.5605C277 91.6651 277.895 92.5605 279 92.5605Z" fill="#0A8EFA"/>
<path d="M280.023 98.4805C281.128 98.4805 282.023 97.585 282.023 96.4805C282.023 95.3759 281.128 94.4805 280.023 94.4805C278.919 94.4805 278.023 95.3759 278.023 96.4805C278.023 97.585 278.919 98.4805 280.023 98.4805Z" fill="#0A8EFA"/>
<path d="M281.031 104.391C282.136 104.391 283.031 103.495 283.031 102.391C283.031 101.286 282.136 100.391 281.031 100.391C279.927 100.391 279.031 101.286 279.031 102.391C279.031 103.495 279.927 104.391 281.031 104.391Z" fill="#0A8EFA"/>
<path d="M282.039 110.311C283.144 110.311 284.039 109.415 284.039 108.311C284.039 107.206 283.144 106.311 282.039 106.311C280.934 106.311 280.039 107.206 280.039 108.311C280.039 109.415 280.934 110.311 282.039 110.311Z" fill="#0A8EFA"/>
<path d="M265.633 156.9C266.737 156.9 267.633 156.005 267.633 154.9C267.633 153.796 266.737 152.9 265.633 152.9C264.528 152.9 263.633 153.796 263.633 154.9C263.633 156.005 264.528 156.9 265.633 156.9Z" fill="#0A8EFA"/>
<path d="M271.633 156.9C272.737 156.9 273.633 156.005 273.633 154.9C273.633 153.796 272.737 152.9 271.633 152.9C270.528 152.9 269.633 153.796 269.633 154.9C269.633 156.005 270.528 156.9 271.633 156.9Z" fill="#0A8EFA"/>
<path d="M277.633 156.9C278.737 156.9 279.633 156.005 279.633 154.9C279.633 153.796 278.737 152.9 277.633 152.9C276.528 152.9 275.633 153.796 275.633 154.9C275.633 156.005 276.528 156.9 277.633 156.9Z" fill="#0A8EFA"/>
<path d="M283.25 154.98C284.355 154.98 285.25 154.085 285.25 152.98C285.25 151.876 284.355 150.98 283.25 150.98C282.145 150.98 281.25 151.876 281.25 152.98C281.25 154.085 282.145 154.98 283.25 154.98Z" fill="#0A8EFA"/>
<path d="M288.453 152.35C289.558 152.35 290.453 151.454 290.453 150.35C290.453 149.245 289.558 148.35 288.453 148.35C287.349 148.35 286.453 149.245 286.453 150.35C286.453 151.454 287.349 152.35 288.453 152.35Z" fill="#0A8EFA"/>
<path d="M290.75 146.801C291.855 146.801 292.75 145.905 292.75 144.801C292.75 143.696 291.855 142.801 290.75 142.801C289.645 142.801 288.75 143.696 288.75 144.801C288.75 145.905 289.645 146.801 290.75 146.801Z" fill="#0A8EFA"/>
<path d="M292.188 141.09C293.292 141.09 294.188 140.194 294.188 139.09C294.188 137.985 293.292 137.09 292.188 137.09C291.083 137.09 290.188 137.985 290.188 139.09C290.188 140.194 291.083 141.09 292.188 141.09Z" fill="#0A8EFA"/>
<path d="M292.188 135.09C293.292 135.09 294.188 134.194 294.188 133.09C294.188 131.985 293.292 131.09 292.188 131.09C291.083 131.09 290.188 131.985 290.188 133.09C290.188 134.194 291.083 135.09 292.188 135.09Z" fill="#0A8EFA"/>
<path d="M292.188 129.09C293.292 129.09 294.188 128.194 294.188 127.09C294.188 125.985 293.292 125.09 292.188 125.09C291.083 125.09 290.188 125.985 290.188 127.09C290.188 128.194 291.083 129.09 292.188 129.09Z" fill="#0A8EFA"/>
<path d="M291.852 123.16C292.956 123.16 293.852 122.265 293.852 121.16C293.852 120.056 292.956 119.16 291.852 119.16C290.747 119.16 289.852 120.056 289.852 121.16C289.852 122.265 290.747 123.16 291.852 123.16Z" fill="#0A8EFA"/>
<path d="M289.547 117.609C290.651 117.609 291.547 116.714 291.547 115.609C291.547 114.505 290.651 113.609 289.547 113.609C288.442 113.609 287.547 114.505 287.547 115.609C287.547 116.714 288.442 117.609 289.547 117.609Z" fill="#0A8EFA"/>
<path d="M285.906 113.42C287.011 113.42 287.906 112.524 287.906 111.42C287.906 110.315 287.011 109.42 285.906 109.42C284.802 109.42 283.906 110.315 283.906 111.42C283.906 112.524 284.802 113.42 285.906 113.42Z" fill="#0A8EFA"/>
<path d="M280.359 111.131C281.464 111.131 282.359 110.235 282.359 109.131C282.359 108.026 281.464 107.131 280.359 107.131C279.255 107.131 278.359 108.026 278.359 109.131C278.359 110.235 279.255 111.131 280.359 111.131Z" fill="#0A8EFA"/>
<path d="M274.508 110.4C275.612 110.4 276.508 109.505 276.508 108.4C276.508 107.296 275.612 106.4 274.508 106.4C273.403 106.4 272.508 107.296 272.508 108.4C272.508 109.505 273.403 110.4 274.508 110.4Z" fill="#0A8EFA"/>
<path d="M268.508 110.4C269.612 110.4 270.508 109.505 270.508 108.4C270.508 107.296 269.612 106.4 268.508 106.4C267.403 106.4 266.508 107.296 266.508 108.4C266.508 109.505 267.403 110.4 268.508 110.4Z" fill="#0A8EFA"/>
<path d="M262.508 110.4C263.612 110.4 264.508 109.505 264.508 108.4C264.508 107.296 263.612 106.4 262.508 106.4C261.403 106.4 260.508 107.296 260.508 108.4C260.508 109.505 261.403 110.4 262.508 110.4Z" fill="#0A8EFA"/>
<path d="M256.797 109.15C257.901 109.15 258.797 108.255 258.797 107.15C258.797 106.046 257.901 105.15 256.797 105.15C255.692 105.15 254.797 106.046 254.797 107.15C254.797 108.255 255.692 109.15 256.797 109.15Z" fill="#0A8EFA"/>
<path d="M251.422 106.5C252.526 106.5 253.422 105.605 253.422 104.5C253.422 103.395 252.526 102.5 251.422 102.5C250.317 102.5 249.422 103.395 249.422 104.5C249.422 105.605 250.317 106.5 251.422 106.5Z" fill="#0A8EFA"/>
<path d="M246.438 103.35C247.542 103.35 248.438 102.454 248.438 101.35C248.438 100.245 247.542 99.3496 246.438 99.3496C245.333 99.3496 244.438 100.245 244.438 101.35C244.438 102.454 245.333 103.35 246.438 103.35Z" fill="#0A8EFA"/>
<path d="M242.75 98.6191C243.855 98.6191 244.75 97.7237 244.75 96.6191C244.75 95.5146 243.855 94.6191 242.75 94.6191C241.645 94.6191 240.75 95.5146 240.75 96.6191C240.75 97.7237 241.645 98.6191 242.75 98.6191Z" fill="#0A8EFA"/>
<path d="M239.062 93.8906C240.167 93.8906 241.062 92.9952 241.062 91.8906C241.062 90.7861 240.167 89.8906 239.062 89.8906C237.958 89.8906 237.062 90.7861 237.062 91.8906C237.062 92.9952 237.958 93.8906 239.062 93.8906Z" fill="#0A8EFA"/>
<path d="M235.812 88.8691C236.917 88.8691 237.812 87.9737 237.812 86.8691C237.812 85.7646 236.917 84.8691 235.812 84.8691C234.708 84.8691 233.812 85.7646 233.812 86.8691C233.812 87.9737 234.708 88.8691 235.812 88.8691Z" fill="#0A8EFA"/>
<path d="M232.961 83.5898C234.066 83.5898 234.961 82.6944 234.961 81.5898C234.961 80.4853 234.066 79.5898 232.961 79.5898C231.856 79.5898 230.961 80.4853 230.961 81.5898C230.961 82.6944 231.856 83.5898 232.961 83.5898Z" fill="#0A8EFA"/>
<path d="M229.594 79.1309C230.698 79.1309 231.594 78.2354 231.594 77.1309C231.594 76.0263 230.698 75.1309 229.594 75.1309C228.489 75.1309 227.594 76.0263 227.594 77.1309C227.594 78.2354 228.489 79.1309 229.594 79.1309Z" fill="#0A8EFA"/>
<path d="M224.594 80.9102C225.698 80.9102 226.594 80.0147 226.594 78.9102C226.594 77.8056 225.698 76.9102 224.594 76.9102C223.489 76.9102 222.594 77.8056 222.594 78.9102C222.594 80.0147 223.489 80.9102 224.594 80.9102Z" fill="#0A8EFA"/>
<path d="M221.07 85.7695C222.175 85.7695 223.07 84.8741 223.07 83.7695C223.07 82.665 222.175 81.7695 221.07 81.7695C219.966 81.7695 219.07 82.665 219.07 83.7695C219.07 84.8741 219.966 85.7695 221.07 85.7695Z" fill="#0A8EFA"/>
<path d="M217.047 90.1797C218.151 90.1797 219.047 89.2843 219.047 88.1797C219.047 87.0751 218.151 86.1797 217.047 86.1797C215.942 86.1797 215.047 87.0751 215.047 88.1797C215.047 89.2843 215.942 90.1797 217.047 90.1797Z" fill="#0A8EFA"/>
<path d="M212.641 94.2402C213.745 94.2402 214.641 93.3448 214.641 92.2402C214.641 91.1357 213.745 90.2402 212.641 90.2402C211.536 90.2402 210.641 91.1357 210.641 92.2402C210.641 93.3448 211.536 94.2402 212.641 94.2402Z" fill="#0A8EFA"/>
<path d="M208.219 98.3105C209.323 98.3105 210.219 97.4151 210.219 96.3105C210.219 95.206 209.323 94.3105 208.219 94.3105C207.114 94.3105 206.219 95.206 206.219 96.3105C206.219 97.4151 207.114 98.3105 208.219 98.3105Z" fill="#0A8EFA"/>
<path d="M202.891 101.051C203.995 101.051 204.891 100.155 204.891 99.0508C204.891 97.9462 203.995 97.0508 202.891 97.0508C201.786 97.0508 200.891 97.9462 200.891 99.0508C200.891 100.155 201.786 101.051 202.891 101.051Z" fill="#0A8EFA"/>
<path d="M197.547 103.801C198.651 103.801 199.547 102.905 199.547 101.801C199.547 100.696 198.651 99.8008 197.547 99.8008C196.442 99.8008 195.547 100.696 195.547 101.801C195.547 102.905 196.442 103.801 197.547 103.801Z" fill="#0A8EFA"/>
<path d="M192.219 106.551C193.323 106.551 194.219 105.655 194.219 104.551C194.219 103.446 193.323 102.551 192.219 102.551C191.114 102.551 190.219 103.446 190.219 104.551C190.219 105.655 191.114 106.551 192.219 106.551Z" fill="#0A8EFA"/>
<path d="M186.359 107.68C187.464 107.68 188.359 106.784 188.359 105.68C188.359 104.575 187.464 103.68 186.359 103.68C185.255 103.68 184.359 104.575 184.359 105.68C184.359 106.784 185.255 107.68 186.359 107.68Z" fill="#0A8EFA"/>
<path d="M180.43 108.619C181.534 108.619 182.43 107.724 182.43 106.619C182.43 105.515 181.534 104.619 180.43 104.619C179.325 104.619 178.43 105.515 178.43 106.619C178.43 107.724 179.325 108.619 180.43 108.619Z" fill="#0A8EFA"/>
<path d="M174.5 109.551C175.605 109.551 176.5 108.655 176.5 107.551C176.5 106.446 175.605 105.551 174.5 105.551C173.395 105.551 172.5 106.446 172.5 107.551C172.5 108.655 173.395 109.551 174.5 109.551Z" fill="#0A8EFA"/>
<path d="M168.57 110.4C169.675 110.4 170.57 109.505 170.57 108.4C170.57 107.296 169.675 106.4 168.57 106.4C167.466 106.4 166.57 107.296 166.57 108.4C166.57 109.505 167.466 110.4 168.57 110.4Z" fill="#0A8EFA"/>
<path d="M162.57 110.4C163.675 110.4 164.57 109.505 164.57 108.4C164.57 107.296 163.675 106.4 162.57 106.4C161.466 106.4 160.57 107.296 160.57 108.4C160.57 109.505 161.466 110.4 162.57 110.4Z" fill="#0A8EFA"/>
<path d="M156.57 110.4C157.675 110.4 158.57 109.505 158.57 108.4C158.57 107.296 157.675 106.4 156.57 106.4C155.466 106.4 154.57 107.296 154.57 108.4C154.57 109.505 155.466 110.4 156.57 110.4Z" fill="#0A8EFA"/>
<path d="M150.57 110.4C151.675 110.4 152.57 109.505 152.57 108.4C152.57 107.296 151.675 106.4 150.57 106.4C149.466 106.4 148.57 107.296 148.57 108.4C148.57 109.505 149.466 110.4 150.57 110.4Z" fill="#0A8EFA"/>
<path d="M144.57 110.4C145.675 110.4 146.57 109.505 146.57 108.4C146.57 107.296 145.675 106.4 144.57 106.4C143.466 106.4 142.57 107.296 142.57 108.4C142.57 109.505 143.466 110.4 144.57 110.4Z" fill="#0A8EFA"/>
<path d="M138.57 110.4C139.675 110.4 140.57 109.505 140.57 108.4C140.57 107.296 139.675 106.4 138.57 106.4C137.466 106.4 136.57 107.296 136.57 108.4C136.57 109.505 137.466 110.4 138.57 110.4Z" fill="#0A8EFA"/>
<path d="M132.57 110.4C133.675 110.4 134.57 109.505 134.57 108.4C134.57 107.296 133.675 106.4 132.57 106.4C131.466 106.4 130.57 107.296 130.57 108.4C130.57 109.505 131.466 110.4 132.57 110.4Z" fill="#0A8EFA"/>
<path d="M126.57 110.4C127.675 110.4 128.57 109.505 128.57 108.4C128.57 107.296 127.675 106.4 126.57 106.4C125.466 106.4 124.57 107.296 124.57 108.4C124.57 109.505 125.466 110.4 126.57 110.4Z" fill="#0A8EFA"/>
<path d="M120.742 111.24C121.847 111.24 122.742 110.345 122.742 109.24C122.742 108.136 121.847 107.24 120.742 107.24C119.638 107.24 118.742 108.136 118.742 109.24C118.742 110.345 119.638 111.24 120.742 111.24Z" fill="#0A8EFA"/>
<path d="M115.188 113.529C116.292 113.529 117.188 112.634 117.188 111.529C117.188 110.425 116.292 109.529 115.188 109.529C114.083 109.529 113.188 110.425 113.188 111.529C113.188 112.634 114.083 113.529 115.188 113.529Z" fill="#0A8EFA"/>
<path d="M111.711 117.891C112.816 117.891 113.711 116.995 113.711 115.891C113.711 114.786 112.816 113.891 111.711 113.891C110.606 113.891 109.711 114.786 109.711 115.891C109.711 116.995 110.606 117.891 111.711 117.891Z" fill="#0A8EFA"/>
<path d="M109.406 123.43C110.511 123.43 111.406 122.534 111.406 121.43C111.406 120.325 110.511 119.43 109.406 119.43C108.302 119.43 107.406 120.325 107.406 121.43C107.406 122.534 108.302 123.43 109.406 123.43Z" fill="#0A8EFA"/>
<path d="M109.18 129.391C110.284 129.391 111.18 128.495 111.18 127.391C111.18 126.286 110.284 125.391 109.18 125.391C108.075 125.391 107.18 126.286 107.18 127.391C107.18 128.495 108.075 129.391 109.18 129.391Z" fill="#0A8EFA"/>
<path d="M109.18 135.391C110.284 135.391 111.18 134.495 111.18 133.391C111.18 132.286 110.284 131.391 109.18 131.391C108.075 131.391 107.18 132.286 107.18 133.391C107.18 134.495 108.075 135.391 109.18 135.391Z" fill="#0A8EFA"/>
<path d="M109.18 141.391C110.284 141.391 111.18 140.495 111.18 139.391C111.18 138.286 110.284 137.391 109.18 137.391C108.075 137.391 107.18 138.286 107.18 139.391C107.18 140.495 108.075 141.391 109.18 141.391Z" fill="#0A8EFA"/>
<path d="M110.742 147.08C111.847 147.08 112.742 146.185 112.742 145.08C112.742 143.976 111.847 143.08 110.742 143.08C109.638 143.08 108.742 143.976 108.742 145.08C108.742 146.185 109.638 147.08 110.742 147.08Z" fill="#0A8EFA"/>
<path d="M113.039 152.619C114.144 152.619 115.039 151.724 115.039 150.619C115.039 149.515 114.144 148.619 113.039 148.619C111.934 148.619 111.039 149.515 111.039 150.619C111.039 151.724 111.934 152.619 113.039 152.619Z" fill="#0A8EFA"/>
<path d="M118.398 155.09C119.503 155.09 120.398 154.194 120.398 153.09C120.398 151.985 119.503 151.09 118.398 151.09C117.294 151.09 116.398 151.985 116.398 153.09C116.398 154.194 117.294 155.09 118.398 155.09Z" fill="#0A8EFA"/>
<path d="M124.039 156.9C125.144 156.9 126.039 156.005 126.039 154.9C126.039 153.796 125.144 152.9 124.039 152.9C122.934 152.9 122.039 153.796 122.039 154.9C122.039 156.005 122.934 156.9 124.039 156.9Z" fill="#0A8EFA"/>
<path d="M130.039 156.9C131.144 156.9 132.039 156.005 132.039 154.9C132.039 153.796 131.144 152.9 130.039 152.9C128.934 152.9 128.039 153.796 128.039 154.9C128.039 156.005 128.934 156.9 130.039 156.9Z" fill="#0A8EFA"/>
<path d="M136.039 156.9C137.144 156.9 138.039 156.005 138.039 154.9C138.039 153.796 137.144 152.9 136.039 152.9C134.934 152.9 134.039 153.796 134.039 154.9C134.039 156.005 134.934 156.9 136.039 156.9Z" fill="#0A8EFA"/>
<path d="M142.039 156.9C143.144 156.9 144.039 156.005 144.039 154.9C144.039 153.796 143.144 152.9 142.039 152.9C140.934 152.9 140.039 153.796 140.039 154.9C140.039 156.005 140.934 156.9 142.039 156.9Z" fill="#0A8EFA"/>
<path d="M245.492 198.061C246.597 198.061 247.492 197.165 247.492 196.061C247.492 194.956 246.597 194.061 245.492 194.061C244.388 194.061 243.492 194.956 243.492 196.061C243.492 197.165 244.388 198.061 245.492 198.061Z" fill="#0A8EFA"/>
<path d="M249.594 194.311C250.698 194.311 251.594 193.415 251.594 192.311C251.594 191.206 250.698 190.311 249.594 190.311C248.489 190.311 247.594 191.206 247.594 192.311C247.594 193.415 248.489 194.311 249.594 194.311Z" fill="#0A8EFA"/>
<path d="M249.938 188.381C251.042 188.381 251.938 187.485 251.938 186.381C251.938 185.276 251.042 184.381 249.938 184.381C248.833 184.381 247.938 185.276 247.938 186.381C247.938 187.485 248.833 188.381 249.938 188.381Z" fill="#0A8EFA"/>
<path d="M249.938 182.381C251.042 182.381 251.938 181.485 251.938 180.381C251.938 179.276 251.042 178.381 249.938 178.381C248.833 178.381 247.938 179.276 247.938 180.381C247.938 181.485 248.833 182.381 249.938 182.381Z" fill="#0A8EFA"/>
<path d="M248.203 176.91C249.308 176.91 250.203 176.015 250.203 174.91C250.203 173.806 249.308 172.91 248.203 172.91C247.099 172.91 246.203 173.806 246.203 174.91C246.203 176.015 247.099 176.91 248.203 176.91Z" fill="#0A8EFA"/>
<path d="M242.438 175.68C243.542 175.68 244.438 174.784 244.438 173.68C244.438 172.575 243.542 171.68 242.438 171.68C241.333 171.68 240.438 172.575 240.438 173.68C240.438 174.784 241.333 175.68 242.438 175.68Z" fill="#0A8EFA"/>
<path d="M236.438 175.68C237.542 175.68 238.438 174.784 238.438 173.68C238.438 172.575 237.542 171.68 236.438 171.68C235.333 171.68 234.438 172.575 234.438 173.68C234.438 174.784 235.333 175.68 236.438 175.68Z" fill="#0A8EFA"/>
<path d="M230.438 175.68C231.542 175.68 232.438 174.784 232.438 173.68C232.438 172.575 231.542 171.68 230.438 171.68C229.333 171.68 228.438 172.575 228.438 173.68C228.438 174.784 229.333 175.68 230.438 175.68Z" fill="#0A8EFA"/>
<path d="M224.438 175.68C225.542 175.68 226.438 174.784 226.438 173.68C226.438 172.575 225.542 171.68 224.438 171.68C223.333 171.68 222.438 172.575 222.438 173.68C222.438 174.784 223.333 175.68 224.438 175.68Z" fill="#0A8EFA"/>
<path d="M218.453 175.73C219.558 175.73 220.453 174.835 220.453 173.73C220.453 172.626 219.558 171.73 218.453 171.73C217.349 171.73 216.453 172.626 216.453 173.73C216.453 174.835 217.349 175.73 218.453 175.73Z" fill="#0A8EFA"/>
<path d="M214.281 179.4C215.386 179.4 216.281 178.505 216.281 177.4C216.281 176.296 215.386 175.4 214.281 175.4C213.177 175.4 212.281 176.296 212.281 177.4C212.281 178.505 213.177 179.4 214.281 179.4Z" fill="#0A8EFA"/>
<path d="M213.867 185.32C214.972 185.32 215.867 184.425 215.867 183.32C215.867 182.216 214.972 181.32 213.867 181.32C212.763 181.32 211.867 182.216 211.867 183.32C211.867 184.425 212.763 185.32 213.867 185.32Z" fill="#0A8EFA"/>
<path d="M213.867 191.32C214.972 191.32 215.867 190.425 215.867 189.32C215.867 188.216 214.972 187.32 213.867 187.32C212.763 187.32 211.867 188.216 211.867 189.32C211.867 190.425 212.763 191.32 213.867 191.32Z" fill="#0A8EFA"/>
<path d="M215.492 196.881C216.597 196.881 217.492 195.985 217.492 194.881C217.492 193.776 216.597 192.881 215.492 192.881C214.388 192.881 213.492 193.776 213.492 194.881C213.492 195.985 214.388 196.881 215.492 196.881Z" fill="#0A8EFA"/>
<path d="M221.242 198.16C222.347 198.16 223.242 197.265 223.242 196.16C223.242 195.056 222.347 194.16 221.242 194.16C220.138 194.16 219.242 195.056 219.242 196.16C219.242 197.265 220.138 198.16 221.242 198.16Z" fill="#0A8EFA"/>
<path d="M227.242 198.16C228.347 198.16 229.242 197.265 229.242 196.16C229.242 195.056 228.347 194.16 227.242 194.16C226.138 194.16 225.242 195.056 225.242 196.16C225.242 197.265 226.138 198.16 227.242 198.16Z" fill="#0A8EFA"/>
<path d="M233.242 198.16C234.347 198.16 235.242 197.265 235.242 196.16C235.242 195.056 234.347 194.16 233.242 194.16C232.138 194.16 231.242 195.056 231.242 196.16C231.242 197.265 232.138 198.16 233.242 198.16Z" fill="#0A8EFA"/>
<path d="M239.242 198.16C240.347 198.16 241.242 197.265 241.242 196.16C241.242 195.056 240.347 194.16 239.242 194.16C238.138 194.16 237.242 195.056 237.242 196.16C237.242 197.265 238.138 198.16 239.242 198.16Z" fill="#0A8EFA"/>
<path d="M245.242 198.16C246.347 198.16 247.242 197.265 247.242 196.16C247.242 195.056 246.347 194.16 245.242 194.16C244.138 194.16 243.242 195.056 243.242 196.16C243.242 197.265 244.138 198.16 245.242 198.16Z" fill="#0A8EFA"/>
<path d="M259.328 116.689C260.433 116.689 261.328 115.794 261.328 114.689C261.328 113.585 260.433 112.689 259.328 112.689C258.224 112.689 257.328 113.585 257.328 114.689C257.328 115.794 258.224 116.689 259.328 116.689Z" fill="#0A8EFA"/>
<path d="M259.328 122.689C260.433 122.689 261.328 121.794 261.328 120.689C261.328 119.585 260.433 118.689 259.328 118.689C258.224 118.689 257.328 119.585 257.328 120.689C257.328 121.794 258.224 122.689 259.328 122.689Z" fill="#0A8EFA"/>
<path d="M259.328 128.689C260.433 128.689 261.328 127.794 261.328 126.689C261.328 125.585 260.433 124.689 259.328 124.689C258.224 124.689 257.328 125.585 257.328 126.689C257.328 127.794 258.224 128.689 259.328 128.689Z" fill="#0A8EFA"/>
<path d="M259.328 134.689C260.433 134.689 261.328 133.794 261.328 132.689C261.328 131.585 260.433 130.689 259.328 130.689C258.224 130.689 257.328 131.585 257.328 132.689C257.328 133.794 258.224 134.689 259.328 134.689Z" fill="#0A8EFA"/>
<path d="M259.328 140.689C260.433 140.689 261.328 139.794 261.328 138.689C261.328 137.585 260.433 136.689 259.328 136.689C258.224 136.689 257.328 137.585 257.328 138.689C257.328 139.794 258.224 140.689 259.328 140.689Z" fill="#0A8EFA"/>
<path d="M259.328 146.689C260.433 146.689 261.328 145.794 261.328 144.689C261.328 143.585 260.433 142.689 259.328 142.689C258.224 142.689 257.328 143.585 257.328 144.689C257.328 145.794 258.224 146.689 259.328 146.689Z" fill="#0A8EFA"/>
<path d="M258.562 152.641C259.667 152.641 260.562 151.745 260.562 150.641C260.562 149.536 259.667 148.641 258.562 148.641C257.458 148.641 256.562 149.536 256.562 150.641C256.562 151.745 257.458 152.641 258.562 152.641Z" fill="#0A8EFA"/>
<path d="M257.781 158.59C258.886 158.59 259.781 157.694 259.781 156.59C259.781 155.485 258.886 154.59 257.781 154.59C256.677 154.59 255.781 155.485 255.781 156.59C255.781 157.694 256.677 158.59 257.781 158.59Z" fill="#0A8EFA"/>
<path d="M256.32 164.359C257.425 164.359 258.32 163.464 258.32 162.359C258.32 161.255 257.425 160.359 256.32 160.359C255.216 160.359 254.32 161.255 254.32 162.359C254.32 163.464 255.216 164.359 256.32 164.359Z" fill="#0A8EFA"/>
<path d="M254.062 169.91C255.167 169.91 256.062 169.015 256.062 167.91C256.062 166.806 255.167 165.91 254.062 165.91C252.958 165.91 252.062 166.806 252.062 167.91C252.062 169.015 252.958 169.91 254.062 169.91Z" fill="#0A8EFA"/>
<path d="M251.789 175.471C252.894 175.471 253.789 174.575 253.789 173.471C253.789 172.366 252.894 171.471 251.789 171.471C250.684 171.471 249.789 172.366 249.789 173.471C249.789 174.575 250.684 175.471 251.789 175.471Z" fill="#0A8EFA"/>
<path d="M220.461 201.82C221.566 201.82 222.461 200.925 222.461 199.82C222.461 198.716 221.566 197.82 220.461 197.82C219.356 197.82 218.461 198.716 218.461 199.82C218.461 200.925 219.356 201.82 220.461 201.82Z" fill="#0A8EFA"/>
<path d="M214.719 203.529C215.823 203.529 216.719 202.634 216.719 201.529C216.719 200.425 215.823 199.529 214.719 199.529C213.614 199.529 212.719 200.425 212.719 201.529C212.719 202.634 213.614 203.529 214.719 203.529Z" fill="#0A8EFA"/>
<path d="M208.883 204.779C209.987 204.779 210.883 203.884 210.883 202.779C210.883 201.675 209.987 200.779 208.883 200.779C207.778 200.779 206.883 201.675 206.883 202.779C206.883 203.884 207.778 204.779 208.883 204.779Z" fill="#0A8EFA"/>
<path d="M202.891 205.18C203.995 205.18 204.891 204.284 204.891 203.18C204.891 202.075 203.995 201.18 202.891 201.18C201.786 201.18 200.891 202.075 200.891 203.18C200.891 204.284 201.786 205.18 202.891 205.18Z" fill="#0A8EFA"/>
<path d="M196.938 204.73C198.042 204.73 198.938 203.835 198.938 202.73C198.938 201.626 198.042 200.73 196.938 200.73C195.833 200.73 194.938 201.626 194.938 202.73C194.938 203.835 195.833 204.73 196.938 204.73Z" fill="#0A8EFA"/>
<path d="M191.023 203.789C192.128 203.789 193.023 202.894 193.023 201.789C193.023 200.684 192.128 199.789 191.023 199.789C189.919 199.789 189.023 200.684 189.023 201.789C189.023 202.894 189.919 203.789 191.023 203.789Z" fill="#0A8EFA"/>
<path d="M185.094 202.85C186.198 202.85 187.094 201.954 187.094 200.85C187.094 199.745 186.198 198.85 185.094 198.85C183.989 198.85 183.094 199.745 183.094 200.85C183.094 201.954 183.989 202.85 185.094 202.85Z" fill="#0A8EFA"/>
<path d="M179.477 200.939C180.581 200.939 181.477 200.044 181.477 198.939C181.477 197.835 180.581 196.939 179.477 196.939C178.372 196.939 177.477 197.835 177.477 198.939C177.477 200.044 178.372 200.939 179.477 200.939Z" fill="#0A8EFA"/>
<path d="M174.133 198.211C175.237 198.211 176.133 197.316 176.133 196.211C176.133 195.106 175.237 194.211 174.133 194.211C173.028 194.211 172.133 195.106 172.133 196.211C172.133 197.316 173.028 198.211 174.133 198.211Z" fill="#0A8EFA"/>
<path d="M168.789 195.49C169.894 195.49 170.789 194.595 170.789 193.49C170.789 192.386 169.894 191.49 168.789 191.49C167.684 191.49 166.789 192.386 166.789 193.49C166.789 194.595 167.684 195.49 168.789 195.49Z" fill="#0A8EFA"/>
<path d="M164.148 191.83C165.253 191.83 166.148 190.935 166.148 189.83C166.148 188.726 165.253 187.83 164.148 187.83C163.044 187.83 162.148 188.726 162.148 189.83C162.148 190.935 163.044 191.83 164.148 191.83Z" fill="#0A8EFA"/>
<path d="M160.062 187.439C161.167 187.439 162.062 186.544 162.062 185.439C162.062 184.335 161.167 183.439 160.062 183.439C158.958 183.439 158.062 184.335 158.062 185.439C158.062 186.544 158.958 187.439 160.062 187.439Z" fill="#0A8EFA"/>
<path d="M155.961 183.051C157.066 183.051 157.961 182.155 157.961 181.051C157.961 179.946 157.066 179.051 155.961 179.051C154.856 179.051 153.961 179.946 153.961 181.051C153.961 182.155 154.856 183.051 155.961 183.051Z" fill="#0A8EFA"/>
<path d="M151.867 178.67C152.972 178.67 153.867 177.774 153.867 176.67C153.867 175.565 152.972 174.67 151.867 174.67C150.763 174.67 149.867 175.565 149.867 176.67C149.867 177.774 150.763 178.67 151.867 178.67Z" fill="#0A8EFA"/>
<path d="M148.992 173.471C150.097 173.471 150.992 172.575 150.992 171.471C150.992 170.366 150.097 169.471 148.992 169.471C147.888 169.471 146.992 170.366 146.992 171.471C146.992 172.575 147.888 173.471 148.992 173.471Z" fill="#0A8EFA"/>
<path d="M146.562 167.99C147.667 167.99 148.562 167.095 148.562 165.99C148.562 164.886 147.667 163.99 146.562 163.99C145.458 163.99 144.562 164.886 144.562 165.99C144.562 167.095 145.458 167.99 146.562 167.99Z" fill="#0A8EFA"/>
<path d="M144.258 162.471C145.362 162.471 146.258 161.575 146.258 160.471C146.258 159.366 145.362 158.471 144.258 158.471C143.153 158.471 142.258 159.366 142.258 160.471C142.258 161.575 143.153 162.471 144.258 162.471Z" fill="#0A8EFA"/>
<path d="M143.43 156.529C144.534 156.529 145.43 155.634 145.43 154.529C145.43 153.425 144.534 152.529 143.43 152.529C142.325 152.529 141.43 153.425 141.43 154.529C141.43 155.634 142.325 156.529 143.43 156.529Z" fill="#0A8EFA"/>
<path d="M142.594 150.58C143.698 150.58 144.594 149.685 144.594 148.58C144.594 147.476 143.698 146.58 142.594 146.58C141.489 146.58 140.594 147.476 140.594 148.58C140.594 149.685 141.489 150.58 142.594 150.58Z" fill="#0A8EFA"/>
<path d="M142.039 144.619C143.144 144.619 144.039 143.724 144.039 142.619C144.039 141.515 143.144 140.619 142.039 140.619C140.934 140.619 140.039 141.515 140.039 142.619C140.039 143.724 140.934 144.619 142.039 144.619Z" fill="#0A8EFA"/>
<path d="M142.039 138.619C143.144 138.619 144.039 137.724 144.039 136.619C144.039 135.515 143.144 134.619 142.039 134.619C140.934 134.619 140.039 135.515 140.039 136.619C140.039 137.724 140.934 138.619 142.039 138.619Z" fill="#0A8EFA"/>
<path d="M142.039 132.619C143.144 132.619 144.039 131.724 144.039 130.619C144.039 129.515 143.144 128.619 142.039 128.619C140.934 128.619 140.039 129.515 140.039 130.619C140.039 131.724 140.934 132.619 142.039 132.619Z" fill="#0A8EFA"/>
<path d="M142.039 126.619C143.144 126.619 144.039 125.724 144.039 124.619C144.039 123.515 143.144 122.619 142.039 122.619C140.934 122.619 140.039 123.515 140.039 124.619C140.039 125.724 140.934 126.619 142.039 126.619Z" fill="#0A8EFA"/>
<path d="M142.039 120.619C143.144 120.619 144.039 119.724 144.039 118.619C144.039 117.515 143.144 116.619 142.039 116.619C140.934 116.619 140.039 117.515 140.039 118.619C140.039 119.724 140.934 120.619 142.039 120.619Z" fill="#0A8EFA"/>
<path d="M142.039 114.619C143.144 114.619 144.039 113.724 144.039 112.619C144.039 111.515 143.144 110.619 142.039 110.619C140.934 110.619 140.039 111.515 140.039 112.619C140.039 113.724 140.934 114.619 142.039 114.619Z" fill="#0A8EFA"/>
<path d="M277.938 182.91C279.042 182.91 279.938 182.015 279.938 180.91C279.938 179.806 279.042 178.91 277.938 178.91C276.833 178.91 275.938 179.806 275.938 180.91C275.938 182.015 276.833 182.91 277.938 182.91Z" fill="#0A8EFA"/>
<path d="M272.641 185.48C273.745 185.48 274.641 184.585 274.641 183.48C274.641 182.376 273.745 181.48 272.641 181.48C271.536 181.48 270.641 182.376 270.641 183.48C270.641 184.585 271.536 185.48 272.641 185.48Z" fill="#0A8EFA"/>
<path d="M266.742 186.369C267.847 186.369 268.742 185.474 268.742 184.369C268.742 183.265 267.847 182.369 266.742 182.369C265.638 182.369 264.742 183.265 264.742 184.369C264.742 185.474 265.638 186.369 266.742 186.369Z" fill="#0A8EFA"/>
<path d="M260.742 186.369C261.847 186.369 262.742 185.474 262.742 184.369C262.742 183.265 261.847 182.369 260.742 182.369C259.638 182.369 258.742 183.265 258.742 184.369C258.742 185.474 259.638 186.369 260.742 186.369Z" fill="#0A8EFA"/>
<path d="M254.742 186.369C255.847 186.369 256.742 185.474 256.742 184.369C256.742 183.265 255.847 182.369 254.742 182.369C253.638 182.369 252.742 183.265 252.742 184.369C252.742 185.474 253.638 186.369 254.742 186.369Z" fill="#0A8EFA"/>
<path d="M162.992 220.471C164.097 220.471 164.992 219.575 164.992 218.471C164.992 217.366 164.097 216.471 162.992 216.471C161.888 216.471 160.992 217.366 160.992 218.471C160.992 219.575 161.888 220.471 162.992 220.471Z" fill="#0A8EFA"/>
<path d="M157.258 218.699C158.362 218.699 159.258 217.804 159.258 216.699C159.258 215.595 158.362 214.699 157.258 214.699C156.153 214.699 155.258 215.595 155.258 216.699C155.258 217.804 156.153 218.699 157.258 218.699Z" fill="#0A8EFA"/>
<path d="M151.531 216.93C152.636 216.93 153.531 216.034 153.531 214.93C153.531 213.825 152.636 212.93 151.531 212.93C150.427 212.93 149.531 213.825 149.531 214.93C149.531 216.034 150.427 216.93 151.531 216.93Z" fill="#0A8EFA"/>
<path d="M145.797 215.16C146.901 215.16 147.797 214.265 147.797 213.16C147.797 212.056 146.901 211.16 145.797 211.16C144.692 211.16 143.797 212.056 143.797 213.16C143.797 214.265 144.692 215.16 145.797 215.16Z" fill="#0A8EFA"/>
<path d="M140.289 212.949C141.394 212.949 142.289 212.054 142.289 210.949C142.289 209.845 141.394 208.949 140.289 208.949C139.184 208.949 138.289 209.845 138.289 210.949C138.289 212.054 139.184 212.949 140.289 212.949Z" fill="#0A8EFA"/>
<path d="M135.453 209.4C136.558 209.4 137.453 208.505 137.453 207.4C137.453 206.296 136.558 205.4 135.453 205.4C134.349 205.4 133.453 206.296 133.453 207.4C133.453 208.505 134.349 209.4 135.453 209.4Z" fill="#0A8EFA"/>
<path d="M130.609 205.85C131.714 205.85 132.609 204.954 132.609 203.85C132.609 202.745 131.714 201.85 130.609 201.85C129.505 201.85 128.609 202.745 128.609 203.85C128.609 204.954 129.505 205.85 130.609 205.85Z" fill="#0A8EFA"/>
<path d="M125.773 202.311C126.878 202.311 127.773 201.415 127.773 200.311C127.773 199.206 126.878 198.311 125.773 198.311C124.669 198.311 123.773 199.206 123.773 200.311C123.773 201.415 124.669 202.311 125.773 202.311Z" fill="#0A8EFA"/>
<path d="M122.531 197.471C123.636 197.471 124.531 196.575 124.531 195.471C124.531 194.366 123.636 193.471 122.531 193.471C121.427 193.471 120.531 194.366 120.531 195.471C120.531 196.575 121.427 197.471 122.531 197.471Z" fill="#0A8EFA"/>
<path d="M120.102 191.98C121.206 191.98 122.102 191.085 122.102 189.98C122.102 188.876 121.206 187.98 120.102 187.98C118.997 187.98 118.102 188.876 118.102 189.98C118.102 191.085 118.997 191.98 120.102 191.98Z" fill="#0A8EFA"/>
<path d="M117.852 186.461C118.956 186.461 119.852 185.566 119.852 184.461C119.852 183.356 118.956 182.461 117.852 182.461C116.747 182.461 115.852 183.356 115.852 184.461C115.852 185.566 116.747 186.461 117.852 186.461Z" fill="#0A8EFA"/>
<path d="M117.852 180.461C118.956 180.461 119.852 179.566 119.852 178.461C119.852 177.356 118.956 176.461 117.852 176.461C116.747 176.461 115.852 177.356 115.852 178.461C115.852 179.566 116.747 180.461 117.852 180.461Z" fill="#0A8EFA"/>
<path d="M117.852 174.461C118.956 174.461 119.852 173.566 119.852 172.461C119.852 171.356 118.956 170.461 117.852 170.461C116.747 170.461 115.852 171.356 115.852 172.461C115.852 173.566 116.747 174.461 117.852 174.461Z" fill="#0A8EFA"/>
<path d="M117.852 168.461C118.956 168.461 119.852 167.566 119.852 166.461C119.852 165.356 118.956 164.461 117.852 164.461C116.747 164.461 115.852 165.356 115.852 166.461C115.852 167.566 116.747 168.461 117.852 168.461Z" fill="#0A8EFA"/>
<path d="M117.852 162.461C118.956 162.461 119.852 161.566 119.852 160.461C119.852 159.356 118.956 158.461 117.852 158.461C116.747 158.461 115.852 159.356 115.852 160.461C115.852 161.566 116.747 162.461 117.852 162.461Z" fill="#0A8EFA"/>
<path d="M111.211 347.23C112.316 347.23 113.211 346.335 113.211 345.23C113.211 344.126 112.316 343.23 111.211 343.23C110.106 343.23 109.211 344.126 109.211 345.23C109.211 346.335 110.106 347.23 111.211 347.23Z" fill="#0A8EFA"/>
<path d="M111.211 353.23C112.316 353.23 113.211 352.335 113.211 351.23C113.211 350.126 112.316 349.23 111.211 349.23C110.106 349.23 109.211 350.126 109.211 351.23C109.211 352.335 110.106 353.23 111.211 353.23Z" fill="#0A8EFA"/>
<path d="M111.211 359.23C112.316 359.23 113.211 358.335 113.211 357.23C113.211 356.126 112.316 355.23 111.211 355.23C110.106 355.23 109.211 356.126 109.211 357.23C109.211 358.335 110.106 359.23 111.211 359.23Z" fill="#0A8EFA"/>
<path d="M111.211 365.23C112.316 365.23 113.211 364.335 113.211 363.23C113.211 362.126 112.316 361.23 111.211 361.23C110.106 361.23 109.211 362.126 109.211 363.23C109.211 364.335 110.106 365.23 111.211 365.23Z" fill="#0A8EFA"/>
<path d="M111.211 371.23C112.316 371.23 113.211 370.335 113.211 369.23C113.211 368.126 112.316 367.23 111.211 367.23C110.106 367.23 109.211 368.126 109.211 369.23C109.211 370.335 110.106 371.23 111.211 371.23Z" fill="#0A8EFA"/>
<path d="M111.211 377.23C112.316 377.23 113.211 376.335 113.211 375.23C113.211 374.126 112.316 373.23 111.211 373.23C110.106 373.23 109.211 374.126 109.211 375.23C109.211 376.335 110.106 377.23 111.211 377.23Z" fill="#0A8EFA"/>
<path d="M234.859 221.961C235.964 221.961 236.859 221.066 236.859 219.961C236.859 218.856 235.964 217.961 234.859 217.961C233.755 217.961 232.859 218.856 232.859 219.961C232.859 221.066 233.755 221.961 234.859 221.961Z" fill="#0A8EFA"/>
<path d="M240.547 220.061C241.651 220.061 242.547 219.165 242.547 218.061C242.547 216.956 241.651 216.061 240.547 216.061C239.442 216.061 238.547 216.956 238.547 218.061C238.547 219.165 239.442 220.061 240.547 220.061Z" fill="#0A8EFA"/>
<path d="M246.242 218.15C247.347 218.15 248.242 217.255 248.242 216.15C248.242 215.046 247.347 214.15 246.242 214.15C245.138 214.15 244.242 215.046 244.242 216.15C244.242 217.255 245.138 218.15 246.242 218.15Z" fill="#0A8EFA"/>
<path d="M251.93 216.25C253.034 216.25 253.93 215.355 253.93 214.25C253.93 213.145 253.034 212.25 251.93 212.25C250.825 212.25 249.93 213.145 249.93 214.25C249.93 215.355 250.825 216.25 251.93 216.25Z" fill="#0A8EFA"/>
<path d="M257.617 214.35C258.722 214.35 259.617 213.454 259.617 212.35C259.617 211.245 258.722 210.35 257.617 210.35C256.513 210.35 255.617 211.245 255.617 212.35C255.617 213.454 256.513 214.35 257.617 214.35Z" fill="#0A8EFA"/>
<path d="M262.594 211.1C263.698 211.1 264.594 210.204 264.594 209.1C264.594 207.995 263.698 207.1 262.594 207.1C261.489 207.1 260.594 207.995 260.594 209.1C260.594 210.204 261.489 211.1 262.594 211.1Z" fill="#0A8EFA"/>
<path d="M267.367 207.461C268.472 207.461 269.367 206.566 269.367 205.461C269.367 204.356 268.472 203.461 267.367 203.461C266.263 203.461 265.367 204.356 265.367 205.461C265.367 206.566 266.263 207.461 267.367 207.461Z" fill="#0A8EFA"/>
<path d="M272.141 203.83C273.245 203.83 274.141 202.935 274.141 201.83C274.141 200.726 273.245 199.83 272.141 199.83C271.036 199.83 270.141 200.726 270.141 201.83C270.141 202.935 271.036 203.83 272.141 203.83Z" fill="#0A8EFA"/>
<path d="M276.383 199.77C277.487 199.77 278.383 198.874 278.383 197.77C278.383 196.665 277.487 195.77 276.383 195.77C275.278 195.77 274.383 196.665 274.383 197.77C274.383 198.874 275.278 199.77 276.383 199.77Z" fill="#0A8EFA"/>
<path d="M278.797 194.279C279.901 194.279 280.797 193.384 280.797 192.279C280.797 191.175 279.901 190.279 278.797 190.279C277.692 190.279 276.797 191.175 276.797 192.279C276.797 193.384 277.692 194.279 278.797 194.279Z" fill="#0A8EFA"/>
<path d="M281.219 188.789C282.323 188.789 283.219 187.894 283.219 186.789C283.219 185.684 282.323 184.789 281.219 184.789C280.114 184.789 279.219 185.684 279.219 186.789C279.219 187.894 280.114 188.789 281.219 188.789Z" fill="#0A8EFA"/>
<path d="M282.039 182.961C283.144 182.961 284.039 182.066 284.039 180.961C284.039 179.856 283.144 178.961 282.039 178.961C280.934 178.961 280.039 179.856 280.039 180.961C280.039 182.066 280.934 182.961 282.039 182.961Z" fill="#0A8EFA"/>
<path d="M282.039 176.961C283.144 176.961 284.039 176.066 284.039 174.961C284.039 173.856 283.144 172.961 282.039 172.961C280.934 172.961 280.039 173.856 280.039 174.961C280.039 176.066 280.934 176.961 282.039 176.961Z" fill="#0A8EFA"/>
<path d="M282.039 170.961C283.144 170.961 284.039 170.066 284.039 168.961C284.039 167.856 283.144 166.961 282.039 166.961C280.934 166.961 280.039 167.856 280.039 168.961C280.039 170.066 280.934 170.961 282.039 170.961Z" fill="#0A8EFA"/>
<path d="M282.039 164.961C283.144 164.961 284.039 164.066 284.039 162.961C284.039 161.856 283.144 160.961 282.039 160.961C280.934 160.961 280.039 161.856 280.039 162.961C280.039 164.066 280.934 164.961 282.039 164.961Z" fill="#0A8EFA"/>
<path d="M282.039 158.961C283.144 158.961 284.039 158.066 284.039 156.961C284.039 155.856 283.144 154.961 282.039 154.961C280.934 154.961 280.039 155.856 280.039 156.961C280.039 158.066 280.934 158.961 282.039 158.961Z" fill="#0A8EFA"/>
<path d="M165.867 234.391C166.972 234.391 167.867 233.495 167.867 232.391C167.867 231.286 166.972 230.391 165.867 230.391C164.763 230.391 163.867 231.286 163.867 232.391C163.867 233.495 164.763 234.391 165.867 234.391Z" fill="#0A8EFA"/>
<path d="M160.453 236.881C161.558 236.881 162.453 235.985 162.453 234.881C162.453 233.776 161.558 232.881 160.453 232.881C159.349 232.881 158.453 233.776 158.453 234.881C158.453 235.985 159.349 236.881 160.453 236.881Z" fill="#0A8EFA"/>
<path d="M154.867 239.1C155.972 239.1 156.867 238.204 156.867 237.1C156.867 235.995 155.972 235.1 154.867 235.1C153.763 235.1 152.867 235.995 152.867 237.1C152.867 238.204 153.763 239.1 154.867 239.1Z" fill="#0A8EFA"/>
<path d="M149.289 241.279C150.394 241.279 151.289 240.384 151.289 239.279C151.289 238.175 150.394 237.279 149.289 237.279C148.184 237.279 147.289 238.175 147.289 239.279C147.289 240.384 148.184 241.279 149.289 241.279Z" fill="#0A8EFA"/>
<path d="M143.438 242.65C144.542 242.65 145.438 241.755 145.438 240.65C145.438 239.546 144.542 238.65 143.438 238.65C142.333 238.65 141.438 239.546 141.438 240.65C141.438 241.755 142.333 242.65 143.438 242.65Z" fill="#0A8EFA"/>
<path d="M137.602 244.02C138.706 244.02 139.602 243.124 139.602 242.02C139.602 240.915 138.706 240.02 137.602 240.02C136.497 240.02 135.602 240.915 135.602 242.02C135.602 243.124 136.497 244.02 137.602 244.02Z" fill="#0A8EFA"/>
<path d="M131.867 245.721C132.972 245.721 133.867 244.825 133.867 243.721C133.867 242.616 132.972 241.721 131.867 241.721C130.763 241.721 129.867 242.616 129.867 243.721C129.867 244.825 130.763 245.721 131.867 245.721Z" fill="#0A8EFA"/>
<path d="M126.328 248.02C127.433 248.02 128.328 247.124 128.328 246.02C128.328 244.915 127.433 244.02 126.328 244.02C125.224 244.02 124.328 244.915 124.328 246.02C124.328 247.124 125.224 248.02 126.328 248.02Z" fill="#0A8EFA"/>
<path d="M120.781 250.32C121.886 250.32 122.781 249.425 122.781 248.32C122.781 247.216 121.886 246.32 120.781 246.32C119.677 246.32 118.781 247.216 118.781 248.32C118.781 249.425 119.677 250.32 120.781 250.32Z" fill="#0A8EFA"/>
<path d="M115.242 252.619C116.347 252.619 117.242 251.724 117.242 250.619C117.242 249.515 116.347 248.619 115.242 248.619C114.138 248.619 113.242 249.515 113.242 250.619C113.242 251.724 114.138 252.619 115.242 252.619Z" fill="#0A8EFA"/>
<path d="M110.398 256.09C111.503 256.09 112.398 255.194 112.398 254.09C112.398 252.985 111.503 252.09 110.398 252.09C109.294 252.09 108.398 252.985 108.398 254.09C108.398 255.194 109.294 256.09 110.398 256.09Z" fill="#0A8EFA"/>
<path d="M105.742 259.869C106.847 259.869 107.742 258.974 107.742 257.869C107.742 256.765 106.847 255.869 105.742 255.869C104.638 255.869 103.742 256.765 103.742 257.869C103.742 258.974 104.638 259.869 105.742 259.869Z" fill="#0A8EFA"/>
<path d="M101.07 263.641C102.175 263.641 103.07 262.745 103.07 261.641C103.07 260.536 102.175 259.641 101.07 259.641C99.9657 259.641 99.0703 260.536 99.0703 261.641C99.0703 262.745 99.9657 263.641 101.07 263.641Z" fill="#0A8EFA"/>
<path d="M96.4062 267.42C97.5108 267.42 98.4062 266.524 98.4062 265.42C98.4062 264.315 97.5108 263.42 96.4062 263.42C95.3017 263.42 94.4062 264.315 94.4062 265.42C94.4062 266.524 95.3017 267.42 96.4062 267.42Z" fill="#0A8EFA"/>
<path d="M92.4688 271.891C93.5733 271.891 94.4688 270.995 94.4688 269.891C94.4688 268.786 93.5733 267.891 92.4688 267.891C91.3642 267.891 90.4688 268.786 90.4688 269.891C90.4688 270.995 91.3642 271.891 92.4688 271.891Z" fill="#0A8EFA"/>
<path d="M88.8672 276.689C89.9718 276.689 90.8672 275.794 90.8672 274.689C90.8672 273.585 89.9718 272.689 88.8672 272.689C87.7626 272.689 86.8672 273.585 86.8672 274.689C86.8672 275.794 87.7626 276.689 88.8672 276.689Z" fill="#0A8EFA"/>
<path d="M85.2734 281.49C86.378 281.49 87.2734 280.595 87.2734 279.49C87.2734 278.386 86.378 277.49 85.2734 277.49C84.1689 277.49 83.2734 278.386 83.2734 279.49C83.2734 280.595 84.1689 281.49 85.2734 281.49Z" fill="#0A8EFA"/>
<path d="M81.6719 286.289C82.7764 286.289 83.6719 285.394 83.6719 284.289C83.6719 283.184 82.7764 282.289 81.6719 282.289C80.5673 282.289 79.6719 283.184 79.6719 284.289C79.6719 285.394 80.5673 286.289 81.6719 286.289Z" fill="#0A8EFA"/>
<path d="M78.9297 291.6C80.0343 291.6 80.9297 290.704 80.9297 289.6C80.9297 288.495 80.0343 287.6 78.9297 287.6C77.8251 287.6 76.9297 288.495 76.9297 289.6C76.9297 290.704 77.8251 291.6 78.9297 291.6Z" fill="#0A8EFA"/>
<path d="M76.3906 297.039C77.4952 297.039 78.3906 296.144 78.3906 295.039C78.3906 293.934 77.4952 293.039 76.3906 293.039C75.2861 293.039 74.3906 293.934 74.3906 295.039C74.3906 296.144 75.2861 297.039 76.3906 297.039Z" fill="#0A8EFA"/>
<path d="M73.8516 302.48C74.9561 302.48 75.8516 301.585 75.8516 300.48C75.8516 299.376 74.9561 298.48 73.8516 298.48C72.747 298.48 71.8516 299.376 71.8516 300.48C71.8516 301.585 72.747 302.48 73.8516 302.48Z" fill="#0A8EFA"/>
<path d="M72.6328 308.311C73.7374 308.311 74.6328 307.415 74.6328 306.311C74.6328 305.206 73.7374 304.311 72.6328 304.311C71.5282 304.311 70.6328 305.206 70.6328 306.311C70.6328 307.415 71.5282 308.311 72.6328 308.311Z" fill="#0A8EFA"/>
<path d="M71.7422 314.24C72.8468 314.24 73.7422 313.345 73.7422 312.24C73.7422 311.136 72.8468 310.24 71.7422 310.24C70.6376 310.24 69.7422 311.136 69.7422 312.24C69.7422 313.345 70.6376 314.24 71.7422 314.24Z" fill="#0A8EFA"/>
<path d="M71 320.189C72.1046 320.189 73 319.294 73 318.189C73 317.085 72.1046 316.189 71 316.189C69.8954 316.189 69 317.085 69 318.189C69 319.294 69.8954 320.189 71 320.189Z" fill="#0A8EFA"/>
<path d="M71 326.189C72.1046 326.189 73 325.294 73 324.189C73 323.085 72.1046 322.189 71 322.189C69.8954 322.189 69 323.085 69 324.189C69 325.294 69.8954 326.189 71 326.189Z" fill="#0A8EFA"/>
<path d="M71 332.189C72.1046 332.189 73 331.294 73 330.189C73 329.085 72.1046 328.189 71 328.189C69.8954 328.189 69 329.085 69 330.189C69 331.294 69.8954 332.189 71 332.189Z" fill="#0A8EFA"/>
<path d="M71 338.189C72.1046 338.189 73 337.294 73 336.189C73 335.085 72.1046 334.189 71 334.189C69.8954 334.189 69 335.085 69 336.189C69 337.294 69.8954 338.189 71 338.189Z" fill="#0A8EFA"/>
<path d="M71 344.189C72.1046 344.189 73 343.294 73 342.189C73 341.085 72.1046 340.189 71 340.189C69.8954 340.189 69 341.085 69 342.189C69 343.294 69.8954 344.189 71 344.189Z" fill="#0A8EFA"/>
<path d="M71 350.189C72.1046 350.189 73 349.294 73 348.189C73 347.085 72.1046 346.189 71 346.189C69.8954 346.189 69 347.085 69 348.189C69 349.294 69.8954 350.189 71 350.189Z" fill="#0A8EFA"/>
<path d="M71 356.189C72.1046 356.189 73 355.294 73 354.189C73 353.085 72.1046 352.189 71 352.189C69.8954 352.189 69 353.085 69 354.189C69 355.294 69.8954 356.189 71 356.189Z" fill="#0A8EFA"/>
<path d="M71 362.189C72.1046 362.189 73 361.294 73 360.189C73 359.085 72.1046 358.189 71 358.189C69.8954 358.189 69 359.085 69 360.189C69 361.294 69.8954 362.189 71 362.189Z" fill="#0A8EFA"/>
<path d="M72.1719 367.961C73.2764 367.961 74.1719 367.066 74.1719 365.961C74.1719 364.856 73.2764 363.961 72.1719 363.961C71.0673 363.961 70.1719 364.856 70.1719 365.961C70.1719 367.066 71.0673 367.961 72.1719 367.961Z" fill="#0A8EFA"/>
<path d="M74.4687 373.5C75.5733 373.5 76.4687 372.605 76.4687 371.5C76.4687 370.395 75.5733 369.5 74.4687 369.5C73.3642 369.5 72.4688 370.395 72.4688 371.5C72.4688 372.605 73.3642 373.5 74.4687 373.5Z" fill="#0A8EFA"/>
<path d="M79.9062 375.9C81.0108 375.9 81.9062 375.005 81.9062 373.9C81.9062 372.796 81.0108 371.9 79.9062 371.9C78.8017 371.9 77.9062 372.796 77.9062 373.9C77.9062 375.005 78.8017 375.9 79.9062 375.9Z" fill="#0A8EFA"/>
<path d="M85.6406 377.23C86.7452 377.23 87.6406 376.335 87.6406 375.23C87.6406 374.126 86.7452 373.23 85.6406 373.23C84.5361 373.23 83.6406 374.126 83.6406 375.23C83.6406 376.335 84.5361 377.23 85.6406 377.23Z" fill="#0A8EFA"/>
<path d="M91.6406 377.23C92.7452 377.23 93.6406 376.335 93.6406 375.23C93.6406 374.126 92.7452 373.23 91.6406 373.23C90.5361 373.23 89.6406 374.126 89.6406 375.23C89.6406 376.335 90.5361 377.23 91.6406 377.23Z" fill="#0A8EFA"/>
<path d="M97.6406 377.23C98.7452 377.23 99.6406 376.335 99.6406 375.23C99.6406 374.126 98.7452 373.23 97.6406 373.23C96.5361 373.23 95.6406 374.126 95.6406 375.23C95.6406 376.335 96.5361 377.23 97.6406 377.23Z" fill="#0A8EFA"/>
<path d="M103.641 377.23C104.745 377.23 105.641 376.335 105.641 375.23C105.641 374.126 104.745 373.23 103.641 373.23C102.536 373.23 101.641 374.126 101.641 375.23C101.641 376.335 102.536 377.23 103.641 377.23Z" fill="#0A8EFA"/>
<path d="M109.641 377.23C110.745 377.23 111.641 376.335 111.641 375.23C111.641 374.126 110.745 373.23 109.641 373.23C108.536 373.23 107.641 374.126 107.641 375.23C107.641 376.335 108.536 377.23 109.641 377.23Z" fill="#0A8EFA"/>
<path d="M115.641 377.23C116.745 377.23 117.641 376.335 117.641 375.23C117.641 374.126 116.745 373.23 115.641 373.23C114.536 373.23 113.641 374.126 113.641 375.23C113.641 376.335 114.536 377.23 115.641 377.23Z" fill="#0A8EFA"/>
<path d="M121.641 377.23C122.745 377.23 123.641 376.335 123.641 375.23C123.641 374.126 122.745 373.23 121.641 373.23C120.536 373.23 119.641 374.126 119.641 375.23C119.641 376.335 120.536 377.23 121.641 377.23Z" fill="#0A8EFA"/>
<path d="M127.641 377.23C128.745 377.23 129.641 376.335 129.641 375.23C129.641 374.126 128.745 373.23 127.641 373.23C126.536 373.23 125.641 374.126 125.641 375.23C125.641 376.335 126.536 377.23 127.641 377.23Z" fill="#0A8EFA"/>
<path d="M133.641 377.23C134.745 377.23 135.641 376.335 135.641 375.23C135.641 374.126 134.745 373.23 133.641 373.23C132.536 373.23 131.641 374.126 131.641 375.23C131.641 376.335 132.536 377.23 133.641 377.23Z" fill="#0A8EFA"/>
<path d="M139.641 377.23C140.745 377.23 141.641 376.335 141.641 375.23C141.641 374.126 140.745 373.23 139.641 373.23C138.536 373.23 137.641 374.126 137.641 375.23C137.641 376.335 138.536 377.23 139.641 377.23Z" fill="#0A8EFA"/>
<path d="M145.641 377.23C146.745 377.23 147.641 376.335 147.641 375.23C147.641 374.126 146.745 373.23 145.641 373.23C144.536 373.23 143.641 374.126 143.641 375.23C143.641 376.335 144.536 377.23 145.641 377.23Z" fill="#0A8EFA"/>
<path d="M151.641 377.23C152.745 377.23 153.641 376.335 153.641 375.23C153.641 374.126 152.745 373.23 151.641 373.23C150.536 373.23 149.641 374.126 149.641 375.23C149.641 376.335 150.536 377.23 151.641 377.23Z" fill="#0A8EFA"/>
<path d="M157.641 377.23C158.745 377.23 159.641 376.335 159.641 375.23C159.641 374.126 158.745 373.23 157.641 373.23C156.536 373.23 155.641 374.126 155.641 375.23C155.641 376.335 156.536 377.23 157.641 377.23Z" fill="#0A8EFA"/>
<path d="M163.641 377.23C164.745 377.23 165.641 376.335 165.641 375.23C165.641 374.126 164.745 373.23 163.641 373.23C162.536 373.23 161.641 374.126 161.641 375.23C161.641 376.335 162.536 377.23 163.641 377.23Z" fill="#0A8EFA"/>
<path d="M169.641 377.23C170.745 377.23 171.641 376.335 171.641 375.23C171.641 374.126 170.745 373.23 169.641 373.23C168.536 373.23 167.641 374.126 167.641 375.23C167.641 376.335 168.536 377.23 169.641 377.23Z" fill="#0A8EFA"/>
<path d="M175.641 377.23C176.745 377.23 177.641 376.335 177.641 375.23C177.641 374.126 176.745 373.23 175.641 373.23C174.536 373.23 173.641 374.126 173.641 375.23C173.641 376.335 174.536 377.23 175.641 377.23Z" fill="#0A8EFA"/>
<path d="M181.641 377.23C182.745 377.23 183.641 376.335 183.641 375.23C183.641 374.126 182.745 373.23 181.641 373.23C180.536 373.23 179.641 374.126 179.641 375.23C179.641 376.335 180.536 377.23 181.641 377.23Z" fill="#0A8EFA"/>
<path d="M187.641 377.23C188.745 377.23 189.641 376.335 189.641 375.23C189.641 374.126 188.745 373.23 187.641 373.23C186.536 373.23 185.641 374.126 185.641 375.23C185.641 376.335 186.536 377.23 187.641 377.23Z" fill="#0A8EFA"/>
<path d="M193.641 377.23C194.745 377.23 195.641 376.335 195.641 375.23C195.641 374.126 194.745 373.23 193.641 373.23C192.536 373.23 191.641 374.126 191.641 375.23C191.641 376.335 192.536 377.23 193.641 377.23Z" fill="#0A8EFA"/>
<path d="M199.641 377.23C200.745 377.23 201.641 376.335 201.641 375.23C201.641 374.126 200.745 373.23 199.641 373.23C198.536 373.23 197.641 374.126 197.641 375.23C197.641 376.335 198.536 377.23 199.641 377.23Z" fill="#0A8EFA"/>
<path d="M205.641 377.23C206.745 377.23 207.641 376.335 207.641 375.23C207.641 374.126 206.745 373.23 205.641 373.23C204.536 373.23 203.641 374.126 203.641 375.23C203.641 376.335 204.536 377.23 205.641 377.23Z" fill="#0A8EFA"/>
<path d="M211.641 377.23C212.745 377.23 213.641 376.335 213.641 375.23C213.641 374.126 212.745 373.23 211.641 373.23C210.536 373.23 209.641 374.126 209.641 375.23C209.641 376.335 210.536 377.23 211.641 377.23Z" fill="#0A8EFA"/>
<path d="M217.641 377.23C218.745 377.23 219.641 376.335 219.641 375.23C219.641 374.126 218.745 373.23 217.641 373.23C216.536 373.23 215.641 374.126 215.641 375.23C215.641 376.335 216.536 377.23 217.641 377.23Z" fill="#0A8EFA"/>
<path d="M223.641 377.23C224.745 377.23 225.641 376.335 225.641 375.23C225.641 374.126 224.745 373.23 223.641 373.23C222.536 373.23 221.641 374.126 221.641 375.23C221.641 376.335 222.536 377.23 223.641 377.23Z" fill="#0A8EFA"/>
<path d="M229.641 377.23C230.745 377.23 231.641 376.335 231.641 375.23C231.641 374.126 230.745 373.23 229.641 373.23C228.536 373.23 227.641 374.126 227.641 375.23C227.641 376.335 228.536 377.23 229.641 377.23Z" fill="#0A8EFA"/>
<path d="M235.641 377.23C236.745 377.23 237.641 376.335 237.641 375.23C237.641 374.126 236.745 373.23 235.641 373.23C234.536 373.23 233.641 374.126 233.641 375.23C233.641 376.335 234.536 377.23 235.641 377.23Z" fill="#0A8EFA"/>
<path d="M241.641 377.23C242.745 377.23 243.641 376.335 243.641 375.23C243.641 374.126 242.745 373.23 241.641 373.23C240.536 373.23 239.641 374.126 239.641 375.23C239.641 376.335 240.536 377.23 241.641 377.23Z" fill="#0A8EFA"/>
<path d="M247.641 377.23C248.745 377.23 249.641 376.335 249.641 375.23C249.641 374.126 248.745 373.23 247.641 373.23C246.536 373.23 245.641 374.126 245.641 375.23C245.641 376.335 246.536 377.23 247.641 377.23Z" fill="#0A8EFA"/>
<path d="M253.641 377.23C254.745 377.23 255.641 376.335 255.641 375.23C255.641 374.126 254.745 373.23 253.641 373.23C252.536 373.23 251.641 374.126 251.641 375.23C251.641 376.335 252.536 377.23 253.641 377.23Z" fill="#0A8EFA"/>
<path d="M259.641 377.23C260.745 377.23 261.641 376.335 261.641 375.23C261.641 374.126 260.745 373.23 259.641 373.23C258.536 373.23 257.641 374.126 257.641 375.23C257.641 376.335 258.536 377.23 259.641 377.23Z" fill="#0A8EFA"/>
<path d="M265.641 377.23C266.745 377.23 267.641 376.335 267.641 375.23C267.641 374.126 266.745 373.23 265.641 373.23C264.536 373.23 263.641 374.126 263.641 375.23C263.641 376.335 264.536 377.23 265.641 377.23Z" fill="#0A8EFA"/>
<path d="M271.641 377.23C272.745 377.23 273.641 376.335 273.641 375.23C273.641 374.126 272.745 373.23 271.641 373.23C270.536 373.23 269.641 374.126 269.641 375.23C269.641 376.335 270.536 377.23 271.641 377.23Z" fill="#0A8EFA"/>
<path d="M277.641 377.23C278.745 377.23 279.641 376.335 279.641 375.23C279.641 374.126 278.745 373.23 277.641 373.23C276.536 373.23 275.641 374.126 275.641 375.23C275.641 376.335 276.536 377.23 277.641 377.23Z" fill="#0A8EFA"/>
<path d="M283.641 377.23C284.745 377.23 285.641 376.335 285.641 375.23C285.641 374.126 284.745 373.23 283.641 373.23C282.536 373.23 281.641 374.126 281.641 375.23C281.641 376.335 282.536 377.23 283.641 377.23Z" fill="#0A8EFA"/>
<path d="M289.641 377.23C290.745 377.23 291.641 376.335 291.641 375.23C291.641 374.126 290.745 373.23 289.641 373.23C288.536 373.23 287.641 374.126 287.641 375.23C287.641 376.335 288.536 377.23 289.641 377.23Z" fill="#0A8EFA"/>
<path d="M295.641 377.23C296.745 377.23 297.641 376.335 297.641 375.23C297.641 374.126 296.745 373.23 295.641 373.23C294.536 373.23 293.641 374.126 293.641 375.23C293.641 376.335 294.536 377.23 295.641 377.23Z" fill="#0A8EFA"/>
<path d="M301.641 377.23C302.745 377.23 303.641 376.335 303.641 375.23C303.641 374.126 302.745 373.23 301.641 373.23C300.536 373.23 299.641 374.126 299.641 375.23C299.641 376.335 300.536 377.23 301.641 377.23Z" fill="#0A8EFA"/>
<path d="M307.641 377.23C308.745 377.23 309.641 376.335 309.641 375.23C309.641 374.126 308.745 373.23 307.641 373.23C306.536 373.23 305.641 374.126 305.641 375.23C305.641 376.335 306.536 377.23 307.641 377.23Z" fill="#0A8EFA"/>
<path d="M313.641 377.23C314.745 377.23 315.641 376.335 315.641 375.23C315.641 374.126 314.745 373.23 313.641 373.23C312.536 373.23 311.641 374.126 311.641 375.23C311.641 376.335 312.536 377.23 313.641 377.23Z" fill="#0A8EFA"/>
<path d="M319.422 376.141C320.526 376.141 321.422 375.245 321.422 374.141C321.422 373.036 320.526 372.141 319.422 372.141C318.317 372.141 317.422 373.036 317.422 374.141C317.422 375.245 318.317 376.141 319.422 376.141Z" fill="#0A8EFA"/>
<path d="M324.969 373.84C326.073 373.84 326.969 372.944 326.969 371.84C326.969 370.735 326.073 369.84 324.969 369.84C323.864 369.84 322.969 370.735 322.969 371.84C322.969 372.944 323.864 373.84 324.969 373.84Z" fill="#0A8EFA"/>
<path d="M327.477 368.52C328.581 368.52 329.477 367.624 329.477 366.52C329.477 365.415 328.581 364.52 327.477 364.52C326.372 364.52 325.477 365.415 325.477 366.52C325.477 367.624 326.372 368.52 327.477 368.52Z" fill="#0A8EFA"/>
<path d="M328.891 362.801C329.995 362.801 330.891 361.905 330.891 360.801C330.891 359.696 329.995 358.801 328.891 358.801C327.786 358.801 326.891 359.696 326.891 360.801C326.891 361.905 327.786 362.801 328.891 362.801Z" fill="#0A8EFA"/>
<path d="M328.891 356.801C329.995 356.801 330.891 355.905 330.891 354.801C330.891 353.696 329.995 352.801 328.891 352.801C327.786 352.801 326.891 353.696 326.891 354.801C326.891 355.905 327.786 356.801 328.891 356.801Z" fill="#0A8EFA"/>
<path d="M328.891 350.801C329.995 350.801 330.891 349.905 330.891 348.801C330.891 347.696 329.995 346.801 328.891 346.801C327.786 346.801 326.891 347.696 326.891 348.801C326.891 349.905 327.786 350.801 328.891 350.801Z" fill="#0A8EFA"/>
<path d="M328.891 344.801C329.995 344.801 330.891 343.905 330.891 342.801C330.891 341.696 329.995 340.801 328.891 340.801C327.786 340.801 326.891 341.696 326.891 342.801C326.891 343.905 327.786 344.801 328.891 344.801Z" fill="#0A8EFA"/>
<path d="M328.891 338.801C329.995 338.801 330.891 337.905 330.891 336.801C330.891 335.696 329.995 334.801 328.891 334.801C327.786 334.801 326.891 335.696 326.891 336.801C326.891 337.905 327.786 338.801 328.891 338.801Z" fill="#0A8EFA"/>
<path d="M328.891 332.801C329.995 332.801 330.891 331.905 330.891 330.801C330.891 329.696 329.995 328.801 328.891 328.801C327.786 328.801 326.891 329.696 326.891 330.801C326.891 331.905 327.786 332.801 328.891 332.801Z" fill="#0A8EFA"/>
<path d="M328.891 326.801C329.995 326.801 330.891 325.905 330.891 324.801C330.891 323.696 329.995 322.801 328.891 322.801C327.786 322.801 326.891 323.696 326.891 324.801C326.891 325.905 327.786 326.801 328.891 326.801Z" fill="#0A8EFA"/>
<path d="M328.891 320.801C329.995 320.801 330.891 319.905 330.891 318.801C330.891 317.696 329.995 316.801 328.891 316.801C327.786 316.801 326.891 317.696 326.891 318.801C326.891 319.905 327.786 320.801 328.891 320.801Z" fill="#0A8EFA"/>
<path d="M328.242 314.85C329.347 314.85 330.242 313.954 330.242 312.85C330.242 311.745 329.347 310.85 328.242 310.85C327.138 310.85 326.242 311.745 326.242 312.85C326.242 313.954 327.138 314.85 328.242 314.85Z" fill="#0A8EFA"/>
<path d="M327.352 308.91C328.456 308.91 329.352 308.015 329.352 306.91C329.352 305.806 328.456 304.91 327.352 304.91C326.247 304.91 325.352 305.806 325.352 306.91C325.352 308.015 326.247 308.91 327.352 308.91Z" fill="#0A8EFA"/>
<path d="M326.297 303.029C327.401 303.029 328.297 302.134 328.297 301.029C328.297 299.925 327.401 299.029 326.297 299.029C325.192 299.029 324.297 299.925 324.297 301.029C324.297 302.134 325.192 303.029 326.297 303.029Z" fill="#0A8EFA"/>
<path d="M323.758 297.59C324.862 297.59 325.758 296.694 325.758 295.59C325.758 294.485 324.862 293.59 323.758 293.59C322.653 293.59 321.758 294.485 321.758 295.59C321.758 296.694 322.653 297.59 323.758 297.59Z" fill="#0A8EFA"/>
<path d="M321.219 292.15C322.323 292.15 323.219 291.255 323.219 290.15C323.219 289.046 322.323 288.15 321.219 288.15C320.114 288.15 319.219 289.046 319.219 290.15C319.219 291.255 320.114 292.15 321.219 292.15Z" fill="#0A8EFA"/>
<path d="M318.578 286.779C319.683 286.779 320.578 285.884 320.578 284.779C320.578 283.675 319.683 282.779 318.578 282.779C317.474 282.779 316.578 283.675 316.578 284.779C316.578 285.884 317.474 286.779 318.578 286.779Z" fill="#0A8EFA"/>
<path d="M314.992 281.98C316.097 281.98 316.992 281.085 316.992 279.98C316.992 278.876 316.097 277.98 314.992 277.98C313.888 277.98 312.992 278.876 312.992 279.98C312.992 281.085 313.888 281.98 314.992 281.98Z" fill="#0A8EFA"/>
<path d="M311.391 277.18C312.495 277.18 313.391 276.284 313.391 275.18C313.391 274.075 312.495 273.18 311.391 273.18C310.286 273.18 309.391 274.075 309.391 275.18C309.391 276.284 310.286 277.18 311.391 277.18Z" fill="#0A8EFA"/>
<path d="M307.789 272.381C308.894 272.381 309.789 271.485 309.789 270.381C309.789 269.276 308.894 268.381 307.789 268.381C306.684 268.381 305.789 269.276 305.789 270.381C305.789 271.485 306.684 272.381 307.789 272.381Z" fill="#0A8EFA"/>
<path d="M303.953 267.801C305.058 267.801 305.953 266.905 305.953 265.801C305.953 264.696 305.058 263.801 303.953 263.801C302.849 263.801 301.953 264.696 301.953 265.801C301.953 266.905 302.849 267.801 303.953 267.801Z" fill="#0A8EFA"/>
<path d="M299.289 264.029C300.394 264.029 301.289 263.134 301.289 262.029C301.289 260.925 300.394 260.029 299.289 260.029C298.184 260.029 297.289 260.925 297.289 262.029C297.289 263.134 298.184 264.029 299.289 264.029Z" fill="#0A8EFA"/>
<path d="M294.633 260.25C295.737 260.25 296.633 259.355 296.633 258.25C296.633 257.145 295.737 256.25 294.633 256.25C293.528 256.25 292.633 257.145 292.633 258.25C292.633 259.355 293.528 260.25 294.633 260.25Z" fill="#0A8EFA"/>
<path d="M289.969 256.471C291.073 256.471 291.969 255.575 291.969 254.471C291.969 253.366 291.073 252.471 289.969 252.471C288.864 252.471 287.969 253.366 287.969 254.471C287.969 255.575 288.864 256.471 289.969 256.471Z" fill="#0A8EFA"/>
<path d="M285.211 252.85C286.316 252.85 287.211 251.954 287.211 250.85C287.211 249.745 286.316 248.85 285.211 248.85C284.106 248.85 283.211 249.745 283.211 250.85C283.211 251.954 284.106 252.85 285.211 252.85Z" fill="#0A8EFA"/>
<path d="M279.672 250.551C280.776 250.551 281.672 249.655 281.672 248.551C281.672 247.446 280.776 246.551 279.672 246.551C278.567 246.551 277.672 247.446 277.672 248.551C277.672 249.655 278.567 250.551 279.672 250.551Z" fill="#0A8EFA"/>
<path d="M274.133 248.25C275.237 248.25 276.133 247.355 276.133 246.25C276.133 245.145 275.237 244.25 274.133 244.25C273.028 244.25 272.133 245.145 272.133 246.25C272.133 247.355 273.028 248.25 274.133 248.25Z" fill="#0A8EFA"/>
<path d="M268.578 245.961C269.683 245.961 270.578 245.066 270.578 243.961C270.578 242.856 269.683 241.961 268.578 241.961C267.474 241.961 266.578 242.856 266.578 243.961C266.578 245.066 267.474 245.961 268.578 245.961Z" fill="#0A8EFA"/>
<path d="M262.883 244.16C263.987 244.16 264.883 243.265 264.883 242.16C264.883 241.056 263.987 240.16 262.883 240.16C261.778 240.16 260.883 241.056 260.883 242.16C260.883 243.265 261.778 244.16 262.883 244.16Z" fill="#0A8EFA"/>
<path d="M257.039 242.789C258.144 242.789 259.039 241.894 259.039 240.789C259.039 239.684 258.144 238.789 257.039 238.789C255.934 238.789 255.039 239.684 255.039 240.789C255.039 241.894 255.934 242.789 257.039 242.789Z" fill="#0A8EFA"/>
<path d="M251.203 241.42C252.308 241.42 253.203 240.524 253.203 239.42C253.203 238.315 252.308 237.42 251.203 237.42C250.099 237.42 249.203 238.315 249.203 239.42C249.203 240.524 250.099 241.42 251.203 241.42Z" fill="#0A8EFA"/>
<path d="M245.602 239.301C246.706 239.301 247.602 238.405 247.602 237.301C247.602 236.196 246.706 235.301 245.602 235.301C244.497 235.301 243.602 236.196 243.602 237.301C243.602 238.405 244.497 239.301 245.602 239.301Z" fill="#0A8EFA"/>
<path d="M240.039 237.039C241.144 237.039 242.039 236.144 242.039 235.039C242.039 233.934 241.144 233.039 240.039 233.039C238.934 233.039 238.039 233.934 238.039 235.039C238.039 236.144 238.934 237.039 240.039 237.039Z" fill="#0A8EFA"/>
<path d="M234.477 234.779C235.581 234.779 236.477 233.884 236.477 232.779C236.477 231.675 235.581 230.779 234.477 230.779C233.372 230.779 232.477 231.675 232.477 232.779C232.477 233.884 233.372 234.779 234.477 234.779Z" fill="#0A8EFA"/>
<path d="M288.68 346.189C289.784 346.189 290.68 345.294 290.68 344.189C290.68 343.085 289.784 342.189 288.68 342.189C287.575 342.189 286.68 343.085 286.68 344.189C286.68 345.294 287.575 346.189 288.68 346.189Z" fill="#0A8EFA"/>
<path d="M288.68 352.189C289.784 352.189 290.68 351.294 290.68 350.189C290.68 349.085 289.784 348.189 288.68 348.189C287.575 348.189 286.68 349.085 286.68 350.189C286.68 351.294 287.575 352.189 288.68 352.189Z" fill="#0A8EFA"/>
<path d="M288.68 358.189C289.784 358.189 290.68 357.294 290.68 356.189C290.68 355.085 289.784 354.189 288.68 354.189C287.575 354.189 286.68 355.085 286.68 356.189C286.68 357.294 287.575 358.189 288.68 358.189Z" fill="#0A8EFA"/>
<path d="M288.68 364.189C289.784 364.189 290.68 363.294 290.68 362.189C290.68 361.085 289.784 360.189 288.68 360.189C287.575 360.189 286.68 361.085 286.68 362.189C286.68 363.294 287.575 364.189 288.68 364.189Z" fill="#0A8EFA"/>
<path d="M288.68 370.189C289.784 370.189 290.68 369.294 290.68 368.189C290.68 367.085 289.784 366.189 288.68 366.189C287.575 366.189 286.68 367.085 286.68 368.189C286.68 369.294 287.575 370.189 288.68 370.189Z" fill="#0A8EFA"/>
<path d="M301.32 321.439C302.425 321.439 303.32 320.544 303.32 319.439C303.32 318.335 302.425 317.439 301.32 317.439C300.216 317.439 299.32 318.335 299.32 319.439C299.32 320.544 300.216 321.439 301.32 321.439Z" fill="#0A8EFA"/>
<path d="M302.453 315.67C303.558 315.67 304.453 314.774 304.453 313.67C304.453 312.565 303.558 311.67 302.453 311.67C301.349 311.67 300.453 312.565 300.453 313.67C300.453 314.774 301.349 315.67 302.453 315.67Z" fill="#0A8EFA"/>
<path d="M302.453 309.67C303.558 309.67 304.453 308.774 304.453 307.67C304.453 306.565 303.558 305.67 302.453 305.67C301.349 305.67 300.453 306.565 300.453 307.67C300.453 308.774 301.349 309.67 302.453 309.67Z" fill="#0A8EFA"/>
<path d="M302.453 303.67C303.558 303.67 304.453 302.774 304.453 301.67C304.453 300.565 303.558 299.67 302.453 299.67C301.349 299.67 300.453 300.565 300.453 301.67C300.453 302.774 301.349 303.67 302.453 303.67Z" fill="#0A8EFA"/>
<path d="M301.078 297.949C302.183 297.949 303.078 297.054 303.078 295.949C303.078 294.845 302.183 293.949 301.078 293.949C299.974 293.949 299.078 294.845 299.078 295.949C299.078 297.054 299.974 297.949 301.078 297.949Z" fill="#0A8EFA"/>
<path d="M295.344 296.619C296.448 296.619 297.344 295.724 297.344 294.619C297.344 293.515 296.448 292.619 295.344 292.619C294.239 292.619 293.344 293.515 293.344 294.619C293.344 295.724 294.239 296.619 295.344 296.619Z" fill="#0A8EFA"/>
<path d="M289.344 296.619C290.448 296.619 291.344 295.724 291.344 294.619C291.344 293.515 290.448 292.619 289.344 292.619C288.239 292.619 287.344 293.515 287.344 294.619C287.344 295.724 288.239 296.619 289.344 296.619Z" fill="#0A8EFA"/>
<path d="M283.344 296.619C284.448 296.619 285.344 295.724 285.344 294.619C285.344 293.515 284.448 292.619 283.344 292.619C282.239 292.619 281.344 293.515 281.344 294.619C281.344 295.724 282.239 296.619 283.344 296.619Z" fill="#0A8EFA"/>
<path d="M277.344 296.619C278.448 296.619 279.344 295.724 279.344 294.619C279.344 293.515 278.448 292.619 277.344 292.619C276.239 292.619 275.344 293.515 275.344 294.619C275.344 295.724 276.239 296.619 277.344 296.619Z" fill="#0A8EFA"/>
<path d="M271.344 296.619C272.448 296.619 273.344 295.724 273.344 294.619C273.344 293.515 272.448 292.619 271.344 292.619C270.239 292.619 269.344 293.515 269.344 294.619C269.344 295.724 270.239 296.619 271.344 296.619Z" fill="#0A8EFA"/>
<path d="M265.5 297.4C266.605 297.4 267.5 296.505 267.5 295.4C267.5 294.296 266.605 293.4 265.5 293.4C264.395 293.4 263.5 294.296 263.5 295.4C263.5 296.505 264.395 297.4 265.5 297.4Z" fill="#0A8EFA"/>
<path d="M262.789 302.221C263.894 302.221 264.789 301.325 264.789 300.221C264.789 299.116 263.894 298.221 262.789 298.221C261.684 298.221 260.789 299.116 260.789 300.221C260.789 301.325 261.684 302.221 262.789 302.221Z" fill="#0A8EFA"/>
<path d="M262.789 308.221C263.894 308.221 264.789 307.325 264.789 306.221C264.789 305.116 263.894 304.221 262.789 304.221C261.684 304.221 260.789 305.116 260.789 306.221C260.789 307.325 261.684 308.221 262.789 308.221Z" fill="#0A8EFA"/>
<path d="M262.789 314.221C263.894 314.221 264.789 313.325 264.789 312.221C264.789 311.116 263.894 310.221 262.789 310.221C261.684 310.221 260.789 311.116 260.789 312.221C260.789 313.325 261.684 314.221 262.789 314.221Z" fill="#0A8EFA"/>
<path d="M263.367 320.109C264.472 320.109 265.367 319.214 265.367 318.109C265.367 317.005 264.472 316.109 263.367 316.109C262.263 316.109 261.367 317.005 261.367 318.109C261.367 319.214 262.263 320.109 263.367 320.109Z" fill="#0A8EFA"/>
<path d="M267.859 323.311C268.964 323.311 269.859 322.415 269.859 321.311C269.859 320.206 268.964 319.311 267.859 319.311C266.755 319.311 265.859 320.206 265.859 321.311C265.859 322.415 266.755 323.311 267.859 323.311Z" fill="#0A8EFA"/>
<path d="M273.859 323.311C274.964 323.311 275.859 322.415 275.859 321.311C275.859 320.206 274.964 319.311 273.859 319.311C272.755 319.311 271.859 320.206 271.859 321.311C271.859 322.415 272.755 323.311 273.859 323.311Z" fill="#0A8EFA"/>
<path d="M279.859 323.311C280.964 323.311 281.859 322.415 281.859 321.311C281.859 320.206 280.964 319.311 279.859 319.311C278.755 319.311 277.859 320.206 277.859 321.311C277.859 322.415 278.755 323.311 279.859 323.311Z" fill="#0A8EFA"/>
<path d="M285.859 323.311C286.964 323.311 287.859 322.415 287.859 321.311C287.859 320.206 286.964 319.311 285.859 319.311C284.755 319.311 283.859 320.206 283.859 321.311C283.859 322.415 284.755 323.311 285.859 323.311Z" fill="#0A8EFA"/>
<path d="M291.859 323.311C292.964 323.311 293.859 322.415 293.859 321.311C293.859 320.206 292.964 319.311 291.859 319.311C290.755 319.311 289.859 320.206 289.859 321.311C289.859 322.415 290.755 323.311 291.859 323.311Z" fill="#0A8EFA"/>
<path d="M297.859 323.311C298.964 323.311 299.859 322.415 299.859 321.311C299.859 320.206 298.964 319.311 297.859 319.311C296.755 319.311 295.859 320.206 295.859 321.311C295.859 322.415 296.755 323.311 297.859 323.311Z" fill="#0A8EFA"/>
<path d="M166.477 269.721C167.581 269.721 168.477 268.825 168.477 267.721C168.477 266.616 167.581 265.721 166.477 265.721C165.372 265.721 164.477 266.616 164.477 267.721C164.477 268.825 165.372 269.721 166.477 269.721Z" fill="#0A8EFA"/>
<path d="M172.273 271.301C173.378 271.301 174.273 270.405 174.273 269.301C174.273 268.196 173.378 267.301 172.273 267.301C171.169 267.301 170.273 268.196 170.273 269.301C170.273 270.405 171.169 271.301 172.273 271.301Z" fill="#0A8EFA"/>
<path d="M178.047 272.891C179.151 272.891 180.047 271.995 180.047 270.891C180.047 269.786 179.151 268.891 178.047 268.891C176.942 268.891 176.047 269.786 176.047 270.891C176.047 271.995 176.942 272.891 178.047 272.891Z" fill="#0A8EFA"/>
<path d="M183.953 273.869C185.058 273.869 185.953 272.974 185.953 271.869C185.953 270.765 185.058 269.869 183.953 269.869C182.849 269.869 181.953 270.765 181.953 271.869C181.953 272.974 182.849 273.869 183.953 273.869Z" fill="#0A8EFA"/>
<path d="M189.93 274.391C191.034 274.391 191.93 273.495 191.93 272.391C191.93 271.286 191.034 270.391 189.93 270.391C188.825 270.391 187.93 271.286 187.93 272.391C187.93 273.495 188.825 274.391 189.93 274.391Z" fill="#0A8EFA"/>
<path d="M195.898 274.92C197.003 274.92 197.898 274.024 197.898 272.92C197.898 271.815 197.003 270.92 195.898 270.92C194.794 270.92 193.898 271.815 193.898 272.92C193.898 274.024 194.794 274.92 195.898 274.92Z" fill="#0A8EFA"/>
<path d="M201.883 275.109C202.987 275.109 203.883 274.214 203.883 273.109C203.883 272.005 202.987 271.109 201.883 271.109C200.778 271.109 199.883 272.005 199.883 273.109C199.883 274.214 200.778 275.109 201.883 275.109Z" fill="#0A8EFA"/>
<path d="M207.859 274.58C208.964 274.58 209.859 273.685 209.859 272.58C209.859 271.476 208.964 270.58 207.859 270.58C206.755 270.58 205.859 271.476 205.859 272.58C205.859 273.685 206.755 274.58 207.859 274.58Z" fill="#0A8EFA"/>
<path d="M213.828 274.051C214.933 274.051 215.828 273.155 215.828 272.051C215.828 270.946 214.933 270.051 213.828 270.051C212.724 270.051 211.828 270.946 211.828 272.051C211.828 273.155 212.724 274.051 213.828 274.051Z" fill="#0A8EFA"/>
<path d="M219.797 273.449C220.901 273.449 221.797 272.554 221.797 271.449C221.797 270.345 220.901 269.449 219.797 269.449C218.692 269.449 217.797 270.345 217.797 271.449C217.797 272.554 218.692 273.449 219.797 273.449Z" fill="#0A8EFA"/>
<path d="M225.578 271.859C226.683 271.859 227.578 270.964 227.578 269.859C227.578 268.755 226.683 267.859 225.578 267.859C224.474 267.859 223.578 268.755 223.578 269.859C223.578 270.964 224.474 271.859 225.578 271.859Z" fill="#0A8EFA"/>
<path d="M231.367 270.27C232.472 270.27 233.367 269.374 233.367 268.27C233.367 267.165 232.472 266.27 231.367 266.27C230.263 266.27 229.367 267.165 229.367 268.27C229.367 269.374 230.263 270.27 231.367 270.27Z" fill="#0A8EFA"/>
<path d="M237.156 268.689C238.261 268.689 239.156 267.794 239.156 266.689C239.156 265.585 238.261 264.689 237.156 264.689C236.052 264.689 235.156 265.585 235.156 266.689C235.156 267.794 236.052 268.689 237.156 268.689Z" fill="#0A8EFA"/>
<path d="M169.219 370.539C170.323 370.539 171.219 369.644 171.219 368.539C171.219 367.434 170.323 366.539 169.219 366.539C168.114 366.539 167.219 367.434 167.219 368.539C167.219 369.644 168.114 370.539 169.219 370.539Z" fill="#0A8EFA"/>
<path d="M168.031 364.66C169.136 364.66 170.031 363.765 170.031 362.66C170.031 361.556 169.136 360.66 168.031 360.66C166.927 360.66 166.031 361.556 166.031 362.66C166.031 363.765 166.927 364.66 168.031 364.66Z" fill="#0A8EFA"/>
<path d="M166.953 358.76C168.058 358.76 168.953 357.864 168.953 356.76C168.953 355.655 168.058 354.76 166.953 354.76C165.849 354.76 164.953 355.655 164.953 356.76C164.953 357.864 165.849 358.76 166.953 358.76Z" fill="#0A8EFA"/>
<path d="M165.867 352.859C166.972 352.859 167.867 351.964 167.867 350.859C167.867 349.755 166.972 348.859 165.867 348.859C164.763 348.859 163.867 349.755 163.867 350.859C163.867 351.964 164.763 352.859 165.867 352.859Z" fill="#0A8EFA"/>
<path d="M164.961 346.93C166.066 346.93 166.961 346.034 166.961 344.93C166.961 343.825 166.066 342.93 164.961 342.93C163.856 342.93 162.961 343.825 162.961 344.93C162.961 346.034 163.856 346.93 164.961 346.93Z" fill="#0A8EFA"/>
<path d="M164.188 340.98C165.292 340.98 166.188 340.085 166.188 338.98C166.188 337.876 165.292 336.98 164.188 336.98C163.083 336.98 162.188 337.876 162.188 338.98C162.188 340.085 163.083 340.98 164.188 340.98Z" fill="#0A8EFA"/>
<path d="M163.406 335.029C164.511 335.029 165.406 334.134 165.406 333.029C165.406 331.925 164.511 331.029 163.406 331.029C162.302 331.029 161.406 331.925 161.406 333.029C161.406 334.134 162.302 335.029 163.406 335.029Z" fill="#0A8EFA"/>
<path d="M162.641 329.08C163.745 329.08 164.641 328.185 164.641 327.08C164.641 325.976 163.745 325.08 162.641 325.08C161.536 325.08 160.641 325.976 160.641 327.08C160.641 328.185 161.536 329.08 162.641 329.08Z" fill="#0A8EFA"/>
<path d="M162.117 323.1C163.222 323.1 164.117 322.204 164.117 321.1C164.117 319.995 163.222 319.1 162.117 319.1C161.013 319.1 160.117 319.995 160.117 321.1C160.117 322.204 161.013 323.1 162.117 323.1Z" fill="#0A8EFA"/>
<path d="M161.812 317.109C162.917 317.109 163.812 316.214 163.812 315.109C163.812 314.005 162.917 313.109 161.812 313.109C160.708 313.109 159.812 314.005 159.812 315.109C159.812 316.214 160.708 317.109 161.812 317.109Z" fill="#0A8EFA"/>
<path d="M161.492 311.119C162.597 311.119 163.492 310.224 163.492 309.119C163.492 308.015 162.597 307.119 161.492 307.119C160.388 307.119 159.492 308.015 159.492 309.119C159.492 310.224 160.388 311.119 161.492 311.119Z" fill="#0A8EFA"/>
<path d="M161.18 305.131C162.284 305.131 163.18 304.235 163.18 303.131C163.18 302.026 162.284 301.131 161.18 301.131C160.075 301.131 159.18 302.026 159.18 303.131C159.18 304.235 160.075 305.131 161.18 305.131Z" fill="#0A8EFA"/>
<path d="M160.883 299.141C161.987 299.141 162.883 298.245 162.883 297.141C162.883 296.036 161.987 295.141 160.883 295.141C159.778 295.141 158.883 296.036 158.883 297.141C158.883 298.245 159.778 299.141 160.883 299.141Z" fill="#0A8EFA"/>
<path d="M161.203 293.15C162.308 293.15 163.203 292.255 163.203 291.15C163.203 290.046 162.308 289.15 161.203 289.15C160.099 289.15 159.203 290.046 159.203 291.15C159.203 292.255 160.099 293.15 161.203 293.15Z" fill="#0A8EFA"/>
<path d="M161.523 287.15C162.628 287.15 163.523 286.255 163.523 285.15C163.523 284.046 162.628 283.15 161.523 283.15C160.419 283.15 159.523 284.046 159.523 285.15C159.523 286.255 160.419 287.15 161.523 287.15Z" fill="#0A8EFA"/>
<path d="M161.844 281.16C162.948 281.16 163.844 280.265 163.844 279.16C163.844 278.056 162.948 277.16 161.844 277.16C160.739 277.16 159.844 278.056 159.844 279.16C159.844 280.265 160.739 281.16 161.844 281.16Z" fill="#0A8EFA"/>
<path d="M162.156 275.17C163.261 275.17 164.156 274.274 164.156 273.17C164.156 272.065 163.261 271.17 162.156 271.17C161.052 271.17 160.156 272.065 160.156 273.17C160.156 274.274 161.052 275.17 162.156 275.17Z" fill="#0A8EFA"/>
<path d="M162.781 269.211C163.886 269.211 164.781 268.316 164.781 267.211C164.781 266.106 163.886 265.211 162.781 265.211C161.677 265.211 160.781 266.106 160.781 267.211C160.781 268.316 161.677 269.211 162.781 269.211Z" fill="#0A8EFA"/>
<path d="M163.594 263.26C164.698 263.26 165.594 262.364 165.594 261.26C165.594 260.155 164.698 259.26 163.594 259.26C162.489 259.26 161.594 260.155 161.594 261.26C161.594 262.364 162.489 263.26 163.594 263.26Z" fill="#0A8EFA"/>
<path d="M164.406 257.32C165.511 257.32 166.406 256.425 166.406 255.32C166.406 254.216 165.511 253.32 164.406 253.32C163.302 253.32 162.406 254.216 162.406 255.32C162.406 256.425 163.302 257.32 164.406 257.32Z" fill="#0A8EFA"/>
<path d="M165.219 251.381C166.323 251.381 167.219 250.485 167.219 249.381C167.219 248.276 166.323 247.381 165.219 247.381C164.114 247.381 163.219 248.276 163.219 249.381C163.219 250.485 164.114 251.381 165.219 251.381Z" fill="#0A8EFA"/>
<path d="M166.25 245.461C167.355 245.461 168.25 244.566 168.25 243.461C168.25 242.356 167.355 241.461 166.25 241.461C165.145 241.461 164.25 242.356 164.25 243.461C164.25 244.566 165.145 245.461 166.25 245.461Z" fill="#0A8EFA"/>
<path d="M167.328 239.561C168.433 239.561 169.328 238.665 169.328 237.561C169.328 236.456 168.433 235.561 167.328 235.561C166.224 235.561 165.328 236.456 165.328 237.561C165.328 238.665 166.224 239.561 167.328 239.561Z" fill="#0A8EFA"/>
<path d="M168.422 233.66C169.526 233.66 170.422 232.765 170.422 231.66C170.422 230.556 169.526 229.66 168.422 229.66C167.317 229.66 166.422 230.556 166.422 231.66C166.422 232.765 167.317 233.66 168.422 233.66Z" fill="#0A8EFA"/>
<path d="M169.367 227.74C170.472 227.74 171.367 226.845 171.367 225.74C171.367 224.636 170.472 223.74 169.367 223.74C168.263 223.74 167.367 224.636 167.367 225.74C167.367 226.845 168.263 227.74 169.367 227.74Z" fill="#0A8EFA"/>
<path d="M169.953 221.779C171.058 221.779 171.953 220.884 171.953 219.779C171.953 218.675 171.058 217.779 169.953 217.779C168.849 217.779 167.953 218.675 167.953 219.779C167.953 220.884 168.849 221.779 169.953 221.779Z" fill="#0A8EFA"/>
<path d="M169.953 215.779C171.058 215.779 171.953 214.884 171.953 213.779C171.953 212.675 171.058 211.779 169.953 211.779C168.849 211.779 167.953 212.675 167.953 213.779C167.953 214.884 168.849 215.779 169.953 215.779Z" fill="#0A8EFA"/>
<path d="M169.953 209.779C171.058 209.779 171.953 208.884 171.953 207.779C171.953 206.675 171.058 205.779 169.953 205.779C168.849 205.779 167.953 206.675 167.953 207.779C167.953 208.884 168.849 209.779 169.953 209.779Z" fill="#0A8EFA"/>
<path d="M169.953 203.779C171.058 203.779 171.953 202.884 171.953 201.779C171.953 200.675 171.058 199.779 169.953 199.779C168.849 199.779 167.953 200.675 167.953 201.779C167.953 202.884 168.849 203.779 169.953 203.779Z" fill="#0A8EFA"/>
<path d="M230.672 370.539C231.776 370.539 232.672 369.644 232.672 368.539C232.672 367.434 231.776 366.539 230.672 366.539C229.567 366.539 228.672 367.434 228.672 368.539C228.672 369.644 229.567 370.539 230.672 370.539Z" fill="#0A8EFA"/>
<path d="M231.859 364.66C232.964 364.66 233.859 363.765 233.859 362.66C233.859 361.556 232.964 360.66 231.859 360.66C230.755 360.66 229.859 361.556 229.859 362.66C229.859 363.765 230.755 364.66 231.859 364.66Z" fill="#0A8EFA"/>
<path d="M232.938 358.76C234.042 358.76 234.938 357.864 234.938 356.76C234.938 355.655 234.042 354.76 232.938 354.76C231.833 354.76 230.938 355.655 230.938 356.76C230.938 357.864 231.833 358.76 232.938 358.76Z" fill="#0A8EFA"/>
<path d="M234.023 352.859C235.128 352.859 236.023 351.964 236.023 350.859C236.023 349.755 235.128 348.859 234.023 348.859C232.919 348.859 232.023 349.755 232.023 350.859C232.023 351.964 232.919 352.859 234.023 352.859Z" fill="#0A8EFA"/>
<path d="M234.93 346.93C236.034 346.93 236.93 346.034 236.93 344.93C236.93 343.825 236.034 342.93 234.93 342.93C233.825 342.93 232.93 343.825 232.93 344.93C232.93 346.034 233.825 346.93 234.93 346.93Z" fill="#0A8EFA"/>
<path d="M235.703 340.98C236.808 340.98 237.703 340.085 237.703 338.98C237.703 337.876 236.808 336.98 235.703 336.98C234.599 336.98 233.703 337.876 233.703 338.98C233.703 340.085 234.599 340.98 235.703 340.98Z" fill="#0A8EFA"/>
<path d="M236.477 335.029C237.581 335.029 238.477 334.134 238.477 333.029C238.477 331.925 237.581 331.029 236.477 331.029C235.372 331.029 234.477 331.925 234.477 333.029C234.477 334.134 235.372 335.029 236.477 335.029Z" fill="#0A8EFA"/>
<path d="M237.258 329.08C238.362 329.08 239.258 328.185 239.258 327.08C239.258 325.976 238.362 325.08 237.258 325.08C236.153 325.08 235.258 325.976 235.258 327.08C235.258 328.185 236.153 329.08 237.258 329.08Z" fill="#0A8EFA"/>
<path d="M237.773 323.1C238.878 323.1 239.773 322.204 239.773 321.1C239.773 319.995 238.878 319.1 237.773 319.1C236.669 319.1 235.773 319.995 235.773 321.1C235.773 322.204 236.669 323.1 237.773 323.1Z" fill="#0A8EFA"/>
<path d="M238.094 317.109C239.198 317.109 240.094 316.214 240.094 315.109C240.094 314.005 239.198 313.109 238.094 313.109C236.989 313.109 236.094 314.005 236.094 315.109C236.094 316.214 236.989 317.109 238.094 317.109Z" fill="#0A8EFA"/>
<path d="M238.398 311.119C239.503 311.119 240.398 310.224 240.398 309.119C240.398 308.015 239.503 307.119 238.398 307.119C237.294 307.119 236.398 308.015 236.398 309.119C236.398 310.224 237.294 311.119 238.398 311.119Z" fill="#0A8EFA"/>
<path d="M238.711 305.131C239.816 305.131 240.711 304.235 240.711 303.131C240.711 302.026 239.816 301.131 238.711 301.131C237.606 301.131 236.711 302.026 236.711 303.131C236.711 304.235 237.606 305.131 238.711 305.131Z" fill="#0A8EFA"/>
<path d="M239.008 299.141C240.112 299.141 241.008 298.245 241.008 297.141C241.008 296.036 240.112 295.141 239.008 295.141C237.903 295.141 237.008 296.036 237.008 297.141C237.008 298.245 237.903 299.141 239.008 299.141Z" fill="#0A8EFA"/>
<path d="M238.688 293.15C239.792 293.15 240.688 292.255 240.688 291.15C240.688 290.046 239.792 289.15 238.688 289.15C237.583 289.15 236.688 290.046 236.688 291.15C236.688 292.255 237.583 293.15 238.688 293.15Z" fill="#0A8EFA"/>
<path d="M238.367 287.15C239.472 287.15 240.367 286.255 240.367 285.15C240.367 284.046 239.472 283.15 238.367 283.15C237.263 283.15 236.367 284.046 236.367 285.15C236.367 286.255 237.263 287.15 238.367 287.15Z" fill="#0A8EFA"/>
<path d="M238.047 281.16C239.151 281.16 240.047 280.265 240.047 279.16C240.047 278.056 239.151 277.16 238.047 277.16C236.942 277.16 236.047 278.056 236.047 279.16C236.047 280.265 236.942 281.16 238.047 281.16Z" fill="#0A8EFA"/>
<path d="M237.727 275.17C238.831 275.17 239.727 274.274 239.727 273.17C239.727 272.065 238.831 271.17 237.727 271.17C236.622 271.17 235.727 272.065 235.727 273.17C235.727 274.274 236.622 275.17 237.727 275.17Z" fill="#0A8EFA"/>
<path d="M237.109 269.211C238.214 269.211 239.109 268.316 239.109 267.211C239.109 266.106 238.214 265.211 237.109 265.211C236.005 265.211 235.109 266.106 235.109 267.211C235.109 268.316 236.005 269.211 237.109 269.211Z" fill="#0A8EFA"/>
<path d="M236.297 263.26C237.401 263.26 238.297 262.364 238.297 261.26C238.297 260.155 237.401 259.26 236.297 259.26C235.192 259.26 234.297 260.155 234.297 261.26C234.297 262.364 235.192 263.26 236.297 263.26Z" fill="#0A8EFA"/>
<path d="M235.477 257.32C236.581 257.32 237.477 256.425 237.477 255.32C237.477 254.216 236.581 253.32 235.477 253.32C234.372 253.32 233.477 254.216 233.477 255.32C233.477 256.425 234.372 257.32 235.477 257.32Z" fill="#0A8EFA"/>
<path d="M234.672 251.381C235.776 251.381 236.672 250.485 236.672 249.381C236.672 248.276 235.776 247.381 234.672 247.381C233.567 247.381 232.672 248.276 232.672 249.381C232.672 250.485 233.567 251.381 234.672 251.381Z" fill="#0A8EFA"/>
<path d="M233.641 245.461C234.745 245.461 235.641 244.566 235.641 243.461C235.641 242.356 234.745 241.461 233.641 241.461C232.536 241.461 231.641 242.356 231.641 243.461C231.641 244.566 232.536 245.461 233.641 245.461Z" fill="#0A8EFA"/>
<path d="M232.562 239.561C233.667 239.561 234.562 238.665 234.562 237.561C234.562 236.456 233.667 235.561 232.562 235.561C231.458 235.561 230.562 236.456 230.562 237.561C230.562 238.665 231.458 239.561 232.562 239.561Z" fill="#0A8EFA"/>
<path d="M231.469 233.66C232.573 233.66 233.469 232.765 233.469 231.66C233.469 230.556 232.573 229.66 231.469 229.66C230.364 229.66 229.469 230.556 229.469 231.66C229.469 232.765 230.364 233.66 231.469 233.66Z" fill="#0A8EFA"/>
<path d="M230.531 227.74C231.636 227.74 232.531 226.845 232.531 225.74C232.531 224.636 231.636 223.74 230.531 223.74C229.427 223.74 228.531 224.636 228.531 225.74C228.531 226.845 229.427 227.74 230.531 227.74Z" fill="#0A8EFA"/>
<path d="M229.938 221.779C231.042 221.779 231.938 220.884 231.938 219.779C231.938 218.675 231.042 217.779 229.938 217.779C228.833 217.779 227.938 218.675 227.938 219.779C227.938 220.884 228.833 221.779 229.938 221.779Z" fill="#0A8EFA"/>
<path d="M229.938 215.779C231.042 215.779 231.938 214.884 231.938 213.779C231.938 212.675 231.042 211.779 229.938 211.779C228.833 211.779 227.938 212.675 227.938 213.779C227.938 214.884 228.833 215.779 229.938 215.779Z" fill="#0A8EFA"/>
<path d="M229.938 209.779C231.042 209.779 231.938 208.884 231.938 207.779C231.938 206.675 231.042 205.779 229.938 205.779C228.833 205.779 227.938 206.675 227.938 207.779C227.938 208.884 228.833 209.779 229.938 209.779Z" fill="#0A8EFA"/>
<path d="M229.938 203.779C231.042 203.779 231.938 202.884 231.938 201.779C231.938 200.675 231.042 199.779 229.938 199.779C228.833 199.779 227.938 200.675 227.938 201.779C227.938 202.884 228.833 203.779 229.938 203.779Z" fill="#0A8EFA"/>
</svg>
